<?xml version="1.0" encoding="utf-8"?>
<svg xmlns="http://www.w3.org/2000/svg" xmlns:xlink="http://www.w3.org/1999/xlink" xml:space="preserve" width="984" height="984" viewBox="0 0 984 984"><g fill="#98db3b">
<g transform="translate(264,48) scale(4.12)"><circle cx="3" cy="3" r="3"/></g>
<g transform="translate(360,48) scale(4.12)"><circle cx="3" cy="3" r="3"/></g>
<g transform="translate(456,48) scale(4.12)"><circle cx="3" cy="3" r="3"/></g>
<g transform="translate(480,48) scale(4.12)"><circle cx="3" cy="3" r="3"/></g>
<g transform="translate(552,48) scale(4.12)"><circle cx="3" cy="3" r="3"/></g>
<g transform="translate(600,48) scale(4.12)"><circle cx="3" cy="3" r="3"/></g>
<g transform="translate(648,48) scale(4.12)"><circle cx="3" cy="3" r="3"/></g>
<g transform="translate(720,48) scale(4.12)"><circle cx="3" cy="3" r="3"/></g>
<g transform="translate(240,72) scale(4.12)"><circle cx="3" cy="3" r="3"/></g>
<g transform="translate(264,72) scale(4.12)"><circle cx="3" cy="3" r="3"/></g>
<g transform="translate(312,72) scale(4.12)"><circle cx="3" cy="3" r="3"/></g>
<g transform="translate(336,72) scale(4.12)"><circle cx="3" cy="3" r="3"/></g>
<g transform="translate(360,72) scale(4.12)"><circle cx="3" cy="3" r="3"/></g>
<g transform="translate(408,72) scale(4.12)"><circle cx="3" cy="3" r="3"/></g>
<g transform="translate(432,72) scale(4.12)"><circle cx="3" cy="3" r="3"/></g>
<g transform="translate(456,72) scale(4.12)"><circle cx="3" cy="3" r="3"/></g>
<g transform="translate(480,72) scale(4.12)"><circle cx="3" cy="3" r="3"/></g>
<g transform="translate(528,72) scale(4.12)"><circle cx="3" cy="3" r="3"/></g>
<g transform="translate(672,72) scale(4.12)"><circle cx="3" cy="3" r="3"/></g>
<g transform="translate(696,72) scale(4.12)"><circle cx="3" cy="3" r="3"/></g>
<g transform="translate(720,72) scale(4.12)"><circle cx="3" cy="3" r="3"/></g>
<g transform="translate(264,96) scale(4.12)"><circle cx="3" cy="3" r="3"/></g>
<g transform="translate(288,96) scale(4.12)"><circle cx="3" cy="3" r="3"/></g>
<g transform="translate(312,96) scale(4.12)"><circle cx="3" cy="3" r="3"/></g>
<g transform="translate(360,96) scale(4.12)"><circle cx="3" cy="3" r="3"/></g>
<g transform="translate(384,96) scale(4.12)"><circle cx="3" cy="3" r="3"/></g>
<g transform="translate(504,96) scale(4.12)"><circle cx="3" cy="3" r="3"/></g>
<g transform="translate(552,96) scale(4.12)"><circle cx="3" cy="3" r="3"/></g>
<g transform="translate(576,96) scale(4.12)"><circle cx="3" cy="3" r="3"/></g>
<g transform="translate(624,96) scale(4.12)"><circle cx="3" cy="3" r="3"/></g>
<g transform="translate(672,96) scale(4.12)"><circle cx="3" cy="3" r="3"/></g>
<g transform="translate(720,96) scale(4.12)"><circle cx="3" cy="3" r="3"/></g>
<g transform="translate(240,120) scale(4.12)"><circle cx="3" cy="3" r="3"/></g>
<g transform="translate(264,120) scale(4.12)"><circle cx="3" cy="3" r="3"/></g>
<g transform="translate(312,120) scale(4.12)"><circle cx="3" cy="3" r="3"/></g>
<g transform="translate(408,120) scale(4.12)"><circle cx="3" cy="3" r="3"/></g>
<g transform="translate(432,120) scale(4.12)"><circle cx="3" cy="3" r="3"/></g>
<g transform="translate(576,120) scale(4.12)"><circle cx="3" cy="3" r="3"/></g>
<g transform="translate(624,120) scale(4.12)"><circle cx="3" cy="3" r="3"/></g>
<g transform="translate(648,120) scale(4.12)"><circle cx="3" cy="3" r="3"/></g>
<g transform="translate(288,144) scale(4.12)"><circle cx="3" cy="3" r="3"/></g>
<g transform="translate(336,144) scale(4.12)"><circle cx="3" cy="3" r="3"/></g>
<g transform="translate(360,144) scale(4.12)"><circle cx="3" cy="3" r="3"/></g>
<g transform="translate(384,144) scale(4.12)"><circle cx="3" cy="3" r="3"/></g>
<g transform="translate(408,144) scale(4.12)"><circle cx="3" cy="3" r="3"/></g>
<g transform="translate(456,144) scale(4.12)"><circle cx="3" cy="3" r="3"/></g>
<g transform="translate(600,144) scale(4.12)"><circle cx="3" cy="3" r="3"/></g>
<g transform="translate(624,144) scale(4.12)"><circle cx="3" cy="3" r="3"/></g>
<g transform="translate(720,144) scale(4.12)"><circle cx="3" cy="3" r="3"/></g>
<g transform="translate(240,168) scale(4.12)"><circle cx="3" cy="3" r="3"/></g>
<g transform="translate(288,168) scale(4.12)"><circle cx="3" cy="3" r="3"/></g>
<g transform="translate(360,168) scale(4.12)"><circle cx="3" cy="3" r="3"/></g>
<g transform="translate(456,168) scale(4.12)"><circle cx="3" cy="3" r="3"/></g>
<g transform="translate(480,168) scale(4.12)"><circle cx="3" cy="3" r="3"/></g>
<g transform="translate(504,168) scale(4.12)"><circle cx="3" cy="3" r="3"/></g>
<g transform="translate(528,168) scale(4.12)"><circle cx="3" cy="3" r="3"/></g>
<g transform="translate(600,168) scale(4.12)"><circle cx="3" cy="3" r="3"/></g>
<g transform="translate(696,168) scale(4.12)"><circle cx="3" cy="3" r="3"/></g>
<g transform="translate(720,168) scale(4.12)"><circle cx="3" cy="3" r="3"/></g>
<g transform="translate(240,192) scale(4.12)"><circle cx="3" cy="3" r="3"/></g>
<g transform="translate(288,192) scale(4.12)"><circle cx="3" cy="3" r="3"/></g>
<g transform="translate(336,192) scale(4.12)"><circle cx="3" cy="3" r="3"/></g>
<g transform="translate(384,192) scale(4.12)"><circle cx="3" cy="3" r="3"/></g>
<g transform="translate(432,192) scale(4.12)"><circle cx="3" cy="3" r="3"/></g>
<g transform="translate(480,192) scale(4.12)"><circle cx="3" cy="3" r="3"/></g>
<g transform="translate(528,192) scale(4.12)"><circle cx="3" cy="3" r="3"/></g>
<g transform="translate(576,192) scale(4.12)"><circle cx="3" cy="3" r="3"/></g>
<g transform="translate(624,192) scale(4.12)"><circle cx="3" cy="3" r="3"/></g>
<g transform="translate(672,192) scale(4.12)"><circle cx="3" cy="3" r="3"/></g>
<g transform="translate(720,192) scale(4.12)"><circle cx="3" cy="3" r="3"/></g>
<g transform="translate(336,216) scale(4.12)"><circle cx="3" cy="3" r="3"/></g>
<g transform="translate(360,216) scale(4.12)"><circle cx="3" cy="3" r="3"/></g>
<g transform="translate(384,216) scale(4.12)"><circle cx="3" cy="3" r="3"/></g>
<g transform="translate(504,216) scale(4.12)"><circle cx="3" cy="3" r="3"/></g>
<g transform="translate(552,216) scale(4.12)"><circle cx="3" cy="3" r="3"/></g>
<g transform="translate(576,216) scale(4.12)"><circle cx="3" cy="3" r="3"/></g>
<g transform="translate(648,216) scale(4.12)"><circle cx="3" cy="3" r="3"/></g>
<g transform="translate(48,240) scale(4.12)"><circle cx="3" cy="3" r="3"/></g>
<g transform="translate(72,240) scale(4.12)"><circle cx="3" cy="3" r="3"/></g>
<g transform="translate(96,240) scale(4.12)"><circle cx="3" cy="3" r="3"/></g>
<g transform="translate(120,240) scale(4.12)"><circle cx="3" cy="3" r="3"/></g>
<g transform="translate(144,240) scale(4.12)"><circle cx="3" cy="3" r="3"/></g>
<g transform="translate(192,240) scale(4.12)"><circle cx="3" cy="3" r="3"/></g>
<g transform="translate(216,240) scale(4.12)"><circle cx="3" cy="3" r="3"/></g>
<g transform="translate(240,240) scale(4.12)"><circle cx="3" cy="3" r="3"/></g>
<g transform="translate(264,240) scale(4.12)"><circle cx="3" cy="3" r="3"/></g>
<g transform="translate(288,240) scale(4.12)"><circle cx="3" cy="3" r="3"/></g>
<g transform="translate(336,240) scale(4.12)"><circle cx="3" cy="3" r="3"/></g>
<g transform="translate(360,240) scale(4.12)"><circle cx="3" cy="3" r="3"/></g>
<g transform="translate(408,240) scale(4.12)"><circle cx="3" cy="3" r="3"/></g>
<g transform="translate(480,240) scale(4.12)"><circle cx="3" cy="3" r="3"/></g>
<g transform="translate(552,240) scale(4.12)"><circle cx="3" cy="3" r="3"/></g>
<g transform="translate(648,240) scale(4.12)"><circle cx="3" cy="3" r="3"/></g>
<g transform="translate(696,240) scale(4.12)"><circle cx="3" cy="3" r="3"/></g>
<g transform="translate(744,240) scale(4.12)"><circle cx="3" cy="3" r="3"/></g>
<g transform="translate(792,240) scale(4.12)"><circle cx="3" cy="3" r="3"/></g>
<g transform="translate(840,240) scale(4.12)"><circle cx="3" cy="3" r="3"/></g>
<g transform="translate(888,240) scale(4.12)"><circle cx="3" cy="3" r="3"/></g>
<g transform="translate(120,264) scale(4.12)"><circle cx="3" cy="3" r="3"/></g>
<g transform="translate(168,264) scale(4.12)"><circle cx="3" cy="3" r="3"/></g>
<g transform="translate(216,264) scale(4.12)"><circle cx="3" cy="3" r="3"/></g>
<g transform="translate(240,264) scale(4.12)"><circle cx="3" cy="3" r="3"/></g>
<g transform="translate(264,264) scale(4.12)"><circle cx="3" cy="3" r="3"/></g>
<g transform="translate(360,264) scale(4.12)"><circle cx="3" cy="3" r="3"/></g>
<g transform="translate(408,264) scale(4.12)"><circle cx="3" cy="3" r="3"/></g>
<g transform="translate(456,264) scale(4.12)"><circle cx="3" cy="3" r="3"/></g>
<g transform="translate(480,264) scale(4.12)"><circle cx="3" cy="3" r="3"/></g>
<g transform="translate(528,264) scale(4.12)"><circle cx="3" cy="3" r="3"/></g>
<g transform="translate(624,264) scale(4.12)"><circle cx="3" cy="3" r="3"/></g>
<g transform="translate(648,264) scale(4.12)"><circle cx="3" cy="3" r="3"/></g>
<g transform="translate(720,264) scale(4.12)"><circle cx="3" cy="3" r="3"/></g>
<g transform="translate(744,264) scale(4.12)"><circle cx="3" cy="3" r="3"/></g>
<g transform="translate(792,264) scale(4.12)"><circle cx="3" cy="3" r="3"/></g>
<g transform="translate(840,264) scale(4.12)"><circle cx="3" cy="3" r="3"/></g>
<g transform="translate(864,264) scale(4.12)"><circle cx="3" cy="3" r="3"/></g>
<g transform="translate(888,264) scale(4.12)"><circle cx="3" cy="3" r="3"/></g>
<g transform="translate(48,288) scale(4.12)"><circle cx="3" cy="3" r="3"/></g>
<g transform="translate(72,288) scale(4.12)"><circle cx="3" cy="3" r="3"/></g>
<g transform="translate(96,288) scale(4.12)"><circle cx="3" cy="3" r="3"/></g>
<g transform="translate(120,288) scale(4.12)"><circle cx="3" cy="3" r="3"/></g>
<g transform="translate(168,288) scale(4.12)"><circle cx="3" cy="3" r="3"/></g>
<g transform="translate(192,288) scale(4.12)"><circle cx="3" cy="3" r="3"/></g>
<g transform="translate(216,288) scale(4.12)"><circle cx="3" cy="3" r="3"/></g>
<g transform="translate(288,288) scale(4.12)"><circle cx="3" cy="3" r="3"/></g>
<g transform="translate(312,288) scale(4.12)"><circle cx="3" cy="3" r="3"/></g>
<g transform="translate(336,288) scale(4.12)"><circle cx="3" cy="3" r="3"/></g>
<g transform="translate(360,288) scale(4.12)"><circle cx="3" cy="3" r="3"/></g>
<g transform="translate(432,288) scale(4.12)"><circle cx="3" cy="3" r="3"/></g>
<g transform="translate(456,288) scale(4.12)"><circle cx="3" cy="3" r="3"/></g>
<g transform="translate(480,288) scale(4.12)"><circle cx="3" cy="3" r="3"/></g>
<g transform="translate(528,288) scale(4.12)"><circle cx="3" cy="3" r="3"/></g>
<g transform="translate(600,288) scale(4.12)"><circle cx="3" cy="3" r="3"/></g>
<g transform="translate(648,288) scale(4.12)"><circle cx="3" cy="3" r="3"/></g>
<g transform="translate(672,288) scale(4.12)"><circle cx="3" cy="3" r="3"/></g>
<g transform="translate(696,288) scale(4.12)"><circle cx="3" cy="3" r="3"/></g>
<g transform="translate(744,288) scale(4.12)"><circle cx="3" cy="3" r="3"/></g>
<g transform="translate(768,288) scale(4.12)"><circle cx="3" cy="3" r="3"/></g>
<g transform="translate(816,288) scale(4.12)"><circle cx="3" cy="3" r="3"/></g>
<g transform="translate(840,288) scale(4.12)"><circle cx="3" cy="3" r="3"/></g>
<g transform="translate(864,288) scale(4.12)"><circle cx="3" cy="3" r="3"/></g>
<g transform="translate(912,288) scale(4.12)"><circle cx="3" cy="3" r="3"/></g>
<g transform="translate(48,312) scale(4.12)"><circle cx="3" cy="3" r="3"/></g>
<g transform="translate(72,312) scale(4.12)"><circle cx="3" cy="3" r="3"/></g>
<g transform="translate(168,312) scale(4.12)"><circle cx="3" cy="3" r="3"/></g>
<g transform="translate(216,312) scale(4.12)"><circle cx="3" cy="3" r="3"/></g>
<g transform="translate(240,312) scale(4.12)"><circle cx="3" cy="3" r="3"/></g>
<g transform="translate(312,312) scale(4.12)"><circle cx="3" cy="3" r="3"/></g>
<g transform="translate(384,312) scale(4.12)"><circle cx="3" cy="3" r="3"/></g>
<g transform="translate(408,312) scale(4.12)"><circle cx="3" cy="3" r="3"/></g>
<g transform="translate(504,312) scale(4.12)"><circle cx="3" cy="3" r="3"/></g>
<g transform="translate(552,312) scale(4.12)"><circle cx="3" cy="3" r="3"/></g>
<g transform="translate(576,312) scale(4.12)"><circle cx="3" cy="3" r="3"/></g>
<g transform="translate(600,312) scale(4.12)"><circle cx="3" cy="3" r="3"/></g>
<g transform="translate(624,312) scale(4.12)"><circle cx="3" cy="3" r="3"/></g>
<g transform="translate(648,312) scale(4.12)"><circle cx="3" cy="3" r="3"/></g>
<g transform="translate(672,312) scale(4.12)"><circle cx="3" cy="3" r="3"/></g>
<g transform="translate(720,312) scale(4.12)"><circle cx="3" cy="3" r="3"/></g>
<g transform="translate(744,312) scale(4.12)"><circle cx="3" cy="3" r="3"/></g>
<g transform="translate(768,312) scale(4.12)"><circle cx="3" cy="3" r="3"/></g>
<g transform="translate(840,312) scale(4.12)"><circle cx="3" cy="3" r="3"/></g>
<g transform="translate(888,312) scale(4.12)"><circle cx="3" cy="3" r="3"/></g>
<g transform="translate(48,336) scale(4.12)"><circle cx="3" cy="3" r="3"/></g>
<g transform="translate(96,336) scale(4.12)"><circle cx="3" cy="3" r="3"/></g>
<g transform="translate(120,336) scale(4.12)"><circle cx="3" cy="3" r="3"/></g>
<g transform="translate(192,336) scale(4.12)"><circle cx="3" cy="3" r="3"/></g>
<g transform="translate(240,336) scale(4.12)"><circle cx="3" cy="3" r="3"/></g>
<g transform="translate(288,336) scale(4.12)"><circle cx="3" cy="3" r="3"/></g>
<g transform="translate(312,336) scale(4.12)"><circle cx="3" cy="3" r="3"/></g>
<g transform="translate(360,336) scale(4.12)"><circle cx="3" cy="3" r="3"/></g>
<g transform="translate(384,336) scale(4.12)"><circle cx="3" cy="3" r="3"/></g>
<g transform="translate(408,336) scale(4.12)"><circle cx="3" cy="3" r="3"/></g>
<g transform="translate(432,336) scale(4.12)"><circle cx="3" cy="3" r="3"/></g>
<g transform="translate(456,336) scale(4.12)"><circle cx="3" cy="3" r="3"/></g>
<g transform="translate(504,336) scale(4.12)"><circle cx="3" cy="3" r="3"/></g>
<g transform="translate(528,336) scale(4.12)"><circle cx="3" cy="3" r="3"/></g>
<g transform="translate(552,336) scale(4.12)"><circle cx="3" cy="3" r="3"/></g>
<g transform="translate(576,336) scale(4.12)"><circle cx="3" cy="3" r="3"/></g>
<g transform="translate(600,336) scale(4.12)"><circle cx="3" cy="3" r="3"/></g>
<g transform="translate(624,336) scale(4.12)"><circle cx="3" cy="3" r="3"/></g>
<g transform="translate(744,336) scale(4.12)"><circle cx="3" cy="3" r="3"/></g>
<g transform="translate(768,336) scale(4.12)"><circle cx="3" cy="3" r="3"/></g>
<g transform="translate(816,336) scale(4.12)"><circle cx="3" cy="3" r="3"/></g>
<g transform="translate(840,336) scale(4.12)"><circle cx="3" cy="3" r="3"/></g>
<g transform="translate(864,336) scale(4.12)"><circle cx="3" cy="3" r="3"/></g>
<g transform="translate(912,336) scale(4.12)"><circle cx="3" cy="3" r="3"/></g>
<g transform="translate(48,360) scale(4.12)"><circle cx="3" cy="3" r="3"/></g>
<g transform="translate(96,360) scale(4.12)"><circle cx="3" cy="3" r="3"/></g>
<g transform="translate(120,360) scale(4.12)"><circle cx="3" cy="3" r="3"/></g>
<g transform="translate(168,360) scale(4.12)"><circle cx="3" cy="3" r="3"/></g>
<g transform="translate(216,360) scale(4.12)"><circle cx="3" cy="3" r="3"/></g>
<g transform="translate(240,360) scale(4.12)"><circle cx="3" cy="3" r="3"/></g>
<g transform="translate(264,360) scale(4.12)"><circle cx="3" cy="3" r="3"/></g>
<g transform="translate(336,360) scale(4.12)"><circle cx="3" cy="3" r="3"/></g>
<g transform="translate(360,360) scale(4.12)"><circle cx="3" cy="3" r="3"/></g>
<g transform="translate(408,360) scale(4.12)"><circle cx="3" cy="3" r="3"/></g>
<g transform="translate(600,360) scale(4.12)"><circle cx="3" cy="3" r="3"/></g>
<g transform="translate(624,360) scale(4.12)"><circle cx="3" cy="3" r="3"/></g>
<g transform="translate(648,360) scale(4.12)"><circle cx="3" cy="3" r="3"/></g>
<g transform="translate(672,360) scale(4.12)"><circle cx="3" cy="3" r="3"/></g>
<g transform="translate(744,360) scale(4.12)"><circle cx="3" cy="3" r="3"/></g>
<g transform="translate(792,360) scale(4.12)"><circle cx="3" cy="3" r="3"/></g>
<g transform="translate(864,360) scale(4.12)"><circle cx="3" cy="3" r="3"/></g>
<g transform="translate(888,360) scale(4.12)"><circle cx="3" cy="3" r="3"/></g>
<g transform="translate(48,384) scale(4.12)"><circle cx="3" cy="3" r="3"/></g>
<g transform="translate(72,384) scale(4.12)"><circle cx="3" cy="3" r="3"/></g>
<g transform="translate(96,384) scale(4.12)"><circle cx="3" cy="3" r="3"/></g>
<g transform="translate(144,384) scale(4.12)"><circle cx="3" cy="3" r="3"/></g>
<g transform="translate(168,384) scale(4.12)"><circle cx="3" cy="3" r="3"/></g>
<g transform="translate(192,384) scale(4.12)"><circle cx="3" cy="3" r="3"/></g>
<g transform="translate(288,384) scale(4.12)"><circle cx="3" cy="3" r="3"/></g>
<g transform="translate(360,384) scale(4.12)"><circle cx="3" cy="3" r="3"/></g>
<g transform="translate(432,384) scale(4.12)"><circle cx="3" cy="3" r="3"/></g>
<g transform="translate(456,384) scale(4.12)"><circle cx="3" cy="3" r="3"/></g>
<g transform="translate(480,384) scale(4.12)"><circle cx="3" cy="3" r="3"/></g>
<g transform="translate(504,384) scale(4.12)"><circle cx="3" cy="3" r="3"/></g>
<g transform="translate(528,384) scale(4.12)"><circle cx="3" cy="3" r="3"/></g>
<g transform="translate(600,384) scale(4.12)"><circle cx="3" cy="3" r="3"/></g>
<g transform="translate(672,384) scale(4.12)"><circle cx="3" cy="3" r="3"/></g>
<g transform="translate(696,384) scale(4.12)"><circle cx="3" cy="3" r="3"/></g>
<g transform="translate(768,384) scale(4.12)"><circle cx="3" cy="3" r="3"/></g>
<g transform="translate(792,384) scale(4.12)"><circle cx="3" cy="3" r="3"/></g>
<g transform="translate(864,384) scale(4.12)"><circle cx="3" cy="3" r="3"/></g>
<g transform="translate(888,384) scale(4.12)"><circle cx="3" cy="3" r="3"/></g>
<g transform="translate(912,384) scale(4.12)"><circle cx="3" cy="3" r="3"/></g>
<g transform="translate(48,408) scale(4.12)"><circle cx="3" cy="3" r="3"/></g>
<g transform="translate(72,408) scale(4.12)"><circle cx="3" cy="3" r="3"/></g>
<g transform="translate(120,408) scale(4.12)"><circle cx="3" cy="3" r="3"/></g>
<g transform="translate(168,408) scale(4.12)"><circle cx="3" cy="3" r="3"/></g>
<g transform="translate(216,408) scale(4.12)"><circle cx="3" cy="3" r="3"/></g>
<g transform="translate(240,408) scale(4.12)"><circle cx="3" cy="3" r="3"/></g>
<g transform="translate(336,408) scale(4.12)"><circle cx="3" cy="3" r="3"/></g>
<g transform="translate(384,408) scale(4.12)"><circle cx="3" cy="3" r="3"/></g>
<g transform="translate(408,408) scale(4.12)"><circle cx="3" cy="3" r="3"/></g>
<g transform="translate(456,408) scale(4.12)"><circle cx="3" cy="3" r="3"/></g>
<g transform="translate(504,408) scale(4.12)"><circle cx="3" cy="3" r="3"/></g>
<g transform="translate(552,408) scale(4.12)"><circle cx="3" cy="3" r="3"/></g>
<g transform="translate(576,408) scale(4.12)"><circle cx="3" cy="3" r="3"/></g>
<g transform="translate(648,408) scale(4.12)"><circle cx="3" cy="3" r="3"/></g>
<g transform="translate(696,408) scale(4.12)"><circle cx="3" cy="3" r="3"/></g>
<g transform="translate(720,408) scale(4.12)"><circle cx="3" cy="3" r="3"/></g>
<g transform="translate(744,408) scale(4.12)"><circle cx="3" cy="3" r="3"/></g>
<g transform="translate(792,408) scale(4.12)"><circle cx="3" cy="3" r="3"/></g>
<g transform="translate(840,408) scale(4.12)"><circle cx="3" cy="3" r="3"/></g>
<g transform="translate(912,408) scale(4.12)"><circle cx="3" cy="3" r="3"/></g>
<g transform="translate(48,432) scale(4.12)"><circle cx="3" cy="3" r="3"/></g>
<g transform="translate(72,432) scale(4.12)"><circle cx="3" cy="3" r="3"/></g>
<g transform="translate(120,432) scale(4.12)"><circle cx="3" cy="3" r="3"/></g>
<g transform="translate(144,432) scale(4.12)"><circle cx="3" cy="3" r="3"/></g>
<g transform="translate(192,432) scale(4.12)"><circle cx="3" cy="3" r="3"/></g>
<g transform="translate(336,432) scale(4.12)"><circle cx="3" cy="3" r="3"/></g>
<g transform="translate(360,432) scale(4.12)"><circle cx="3" cy="3" r="3"/></g>
<g transform="translate(456,432) scale(4.12)"><circle cx="3" cy="3" r="3"/></g>
<g transform="translate(480,432) scale(4.12)"><circle cx="3" cy="3" r="3"/></g>
<g transform="translate(504,432) scale(4.12)"><circle cx="3" cy="3" r="3"/></g>
<g transform="translate(576,432) scale(4.12)"><circle cx="3" cy="3" r="3"/></g>
<g transform="translate(624,432) scale(4.12)"><circle cx="3" cy="3" r="3"/></g>
<g transform="translate(672,432) scale(4.12)"><circle cx="3" cy="3" r="3"/></g>
<g transform="translate(696,432) scale(4.12)"><circle cx="3" cy="3" r="3"/></g>
<g transform="translate(720,432) scale(4.12)"><circle cx="3" cy="3" r="3"/></g>
<g transform="translate(744,432) scale(4.12)"><circle cx="3" cy="3" r="3"/></g>
<g transform="translate(768,432) scale(4.12)"><circle cx="3" cy="3" r="3"/></g>
<g transform="translate(792,432) scale(4.12)"><circle cx="3" cy="3" r="3"/></g>
<g transform="translate(816,432) scale(4.12)"><circle cx="3" cy="3" r="3"/></g>
<g transform="translate(840,432) scale(4.12)"><circle cx="3" cy="3" r="3"/></g>
<g transform="translate(864,432) scale(4.12)"><circle cx="3" cy="3" r="3"/></g>
<g transform="translate(912,432) scale(4.12)"><circle cx="3" cy="3" r="3"/></g>
<g transform="translate(96,456) scale(4.12)"><circle cx="3" cy="3" r="3"/></g>
<g transform="translate(144,456) scale(4.12)"><circle cx="3" cy="3" r="3"/></g>
<g transform="translate(168,456) scale(4.12)"><circle cx="3" cy="3" r="3"/></g>
<g transform="translate(264,456) scale(4.12)"><circle cx="3" cy="3" r="3"/></g>
<g transform="translate(288,456) scale(4.12)"><circle cx="3" cy="3" r="3"/></g>
<g transform="translate(360,456) scale(4.12)"><circle cx="3" cy="3" r="3"/></g>
<g transform="translate(480,456) scale(4.12)"><circle cx="3" cy="3" r="3"/></g>
<g transform="translate(504,456) scale(4.12)"><circle cx="3" cy="3" r="3"/></g>
<g transform="translate(552,456) scale(4.12)"><circle cx="3" cy="3" r="3"/></g>
<g transform="translate(576,456) scale(4.12)"><circle cx="3" cy="3" r="3"/></g>
<g transform="translate(624,456) scale(4.12)"><circle cx="3" cy="3" r="3"/></g>
<g transform="translate(720,456) scale(4.12)"><circle cx="3" cy="3" r="3"/></g>
<g transform="translate(792,456) scale(4.12)"><circle cx="3" cy="3" r="3"/></g>
<g transform="translate(864,456) scale(4.12)"><circle cx="3" cy="3" r="3"/></g>
<g transform="translate(888,456) scale(4.12)"><circle cx="3" cy="3" r="3"/></g>
<g transform="translate(48,480) scale(4.12)"><circle cx="3" cy="3" r="3"/></g>
<g transform="translate(72,480) scale(4.12)"><circle cx="3" cy="3" r="3"/></g>
<g transform="translate(120,480) scale(4.12)"><circle cx="3" cy="3" r="3"/></g>
<g transform="translate(168,480) scale(4.12)"><circle cx="3" cy="3" r="3"/></g>
<g transform="translate(192,480) scale(4.12)"><circle cx="3" cy="3" r="3"/></g>
<g transform="translate(240,480) scale(4.12)"><circle cx="3" cy="3" r="3"/></g>
<g transform="translate(312,480) scale(4.12)"><circle cx="3" cy="3" r="3"/></g>
<g transform="translate(336,480) scale(4.12)"><circle cx="3" cy="3" r="3"/></g>
<g transform="translate(408,480) scale(4.12)"><circle cx="3" cy="3" r="3"/></g>
<g transform="translate(432,480) scale(4.12)"><circle cx="3" cy="3" r="3"/></g>
<g transform="translate(480,480) scale(4.12)"><circle cx="3" cy="3" r="3"/></g>
<g transform="translate(504,480) scale(4.12)"><circle cx="3" cy="3" r="3"/></g>
<g transform="translate(528,480) scale(4.12)"><circle cx="3" cy="3" r="3"/></g>
<g transform="translate(552,480) scale(4.12)"><circle cx="3" cy="3" r="3"/></g>
<g transform="translate(600,480) scale(4.12)"><circle cx="3" cy="3" r="3"/></g>
<g transform="translate(648,480) scale(4.12)"><circle cx="3" cy="3" r="3"/></g>
<g transform="translate(696,480) scale(4.12)"><circle cx="3" cy="3" r="3"/></g>
<g transform="translate(744,480) scale(4.12)"><circle cx="3" cy="3" r="3"/></g>
<g transform="translate(768,480) scale(4.12)"><circle cx="3" cy="3" r="3"/></g>
<g transform="translate(864,480) scale(4.12)"><circle cx="3" cy="3" r="3"/></g>
<g transform="translate(888,480) scale(4.12)"><circle cx="3" cy="3" r="3"/></g>
<g transform="translate(912,480) scale(4.12)"><circle cx="3" cy="3" r="3"/></g>
<g transform="translate(48,504) scale(4.12)"><circle cx="3" cy="3" r="3"/></g>
<g transform="translate(72,504) scale(4.12)"><circle cx="3" cy="3" r="3"/></g>
<g transform="translate(144,504) scale(4.12)"><circle cx="3" cy="3" r="3"/></g>
<g transform="translate(240,504) scale(4.12)"><circle cx="3" cy="3" r="3"/></g>
<g transform="translate(288,504) scale(4.12)"><circle cx="3" cy="3" r="3"/></g>
<g transform="translate(312,504) scale(4.12)"><circle cx="3" cy="3" r="3"/></g>
<g transform="translate(384,504) scale(4.12)"><circle cx="3" cy="3" r="3"/></g>
<g transform="translate(408,504) scale(4.12)"><circle cx="3" cy="3" r="3"/></g>
<g transform="translate(504,504) scale(4.12)"><circle cx="3" cy="3" r="3"/></g>
<g transform="translate(552,504) scale(4.12)"><circle cx="3" cy="3" r="3"/></g>
<g transform="translate(576,504) scale(4.12)"><circle cx="3" cy="3" r="3"/></g>
<g transform="translate(648,504) scale(4.12)"><circle cx="3" cy="3" r="3"/></g>
<g transform="translate(720,504) scale(4.12)"><circle cx="3" cy="3" r="3"/></g>
<g transform="translate(744,504) scale(4.12)"><circle cx="3" cy="3" r="3"/></g>
<g transform="translate(768,504) scale(4.12)"><circle cx="3" cy="3" r="3"/></g>
<g transform="translate(816,504) scale(4.12)"><circle cx="3" cy="3" r="3"/></g>
<g transform="translate(912,504) scale(4.12)"><circle cx="3" cy="3" r="3"/></g>
<g transform="translate(120,528) scale(4.12)"><circle cx="3" cy="3" r="3"/></g>
<g transform="translate(192,528) scale(4.12)"><circle cx="3" cy="3" r="3"/></g>
<g transform="translate(216,528) scale(4.12)"><circle cx="3" cy="3" r="3"/></g>
<g transform="translate(288,528) scale(4.12)"><circle cx="3" cy="3" r="3"/></g>
<g transform="translate(312,528) scale(4.12)"><circle cx="3" cy="3" r="3"/></g>
<g transform="translate(360,528) scale(4.12)"><circle cx="3" cy="3" r="3"/></g>
<g transform="translate(384,528) scale(4.12)"><circle cx="3" cy="3" r="3"/></g>
<g transform="translate(456,528) scale(4.12)"><circle cx="3" cy="3" r="3"/></g>
<g transform="translate(480,528) scale(4.12)"><circle cx="3" cy="3" r="3"/></g>
<g transform="translate(576,528) scale(4.12)"><circle cx="3" cy="3" r="3"/></g>
<g transform="translate(600,528) scale(4.12)"><circle cx="3" cy="3" r="3"/></g>
<g transform="translate(672,528) scale(4.12)"><circle cx="3" cy="3" r="3"/></g>
<g transform="translate(744,528) scale(4.12)"><circle cx="3" cy="3" r="3"/></g>
<g transform="translate(768,528) scale(4.12)"><circle cx="3" cy="3" r="3"/></g>
<g transform="translate(816,528) scale(4.12)"><circle cx="3" cy="3" r="3"/></g>
<g transform="translate(864,528) scale(4.12)"><circle cx="3" cy="3" r="3"/></g>
<g transform="translate(888,528) scale(4.12)"><circle cx="3" cy="3" r="3"/></g>
<g transform="translate(912,528) scale(4.12)"><circle cx="3" cy="3" r="3"/></g>
<g transform="translate(72,552) scale(4.12)"><circle cx="3" cy="3" r="3"/></g>
<g transform="translate(216,552) scale(4.12)"><circle cx="3" cy="3" r="3"/></g>
<g transform="translate(336,552) scale(4.12)"><circle cx="3" cy="3" r="3"/></g>
<g transform="translate(384,552) scale(4.12)"><circle cx="3" cy="3" r="3"/></g>
<g transform="translate(408,552) scale(4.12)"><circle cx="3" cy="3" r="3"/></g>
<g transform="translate(456,552) scale(4.12)"><circle cx="3" cy="3" r="3"/></g>
<g transform="translate(480,552) scale(4.12)"><circle cx="3" cy="3" r="3"/></g>
<g transform="translate(576,552) scale(4.12)"><circle cx="3" cy="3" r="3"/></g>
<g transform="translate(600,552) scale(4.12)"><circle cx="3" cy="3" r="3"/></g>
<g transform="translate(648,552) scale(4.12)"><circle cx="3" cy="3" r="3"/></g>
<g transform="translate(720,552) scale(4.12)"><circle cx="3" cy="3" r="3"/></g>
<g transform="translate(744,552) scale(4.12)"><circle cx="3" cy="3" r="3"/></g>
<g transform="translate(792,552) scale(4.12)"><circle cx="3" cy="3" r="3"/></g>
<g transform="translate(840,552) scale(4.12)"><circle cx="3" cy="3" r="3"/></g>
<g transform="translate(888,552) scale(4.12)"><circle cx="3" cy="3" r="3"/></g>
<g transform="translate(120,576) scale(4.12)"><circle cx="3" cy="3" r="3"/></g>
<g transform="translate(192,576) scale(4.12)"><circle cx="3" cy="3" r="3"/></g>
<g transform="translate(216,576) scale(4.12)"><circle cx="3" cy="3" r="3"/></g>
<g transform="translate(264,576) scale(4.12)"><circle cx="3" cy="3" r="3"/></g>
<g transform="translate(288,576) scale(4.12)"><circle cx="3" cy="3" r="3"/></g>
<g transform="translate(360,576) scale(4.12)"><circle cx="3" cy="3" r="3"/></g>
<g transform="translate(408,576) scale(4.12)"><circle cx="3" cy="3" r="3"/></g>
<g transform="translate(432,576) scale(4.12)"><circle cx="3" cy="3" r="3"/></g>
<g transform="translate(480,576) scale(4.12)"><circle cx="3" cy="3" r="3"/></g>
<g transform="translate(504,576) scale(4.12)"><circle cx="3" cy="3" r="3"/></g>
<g transform="translate(600,576) scale(4.12)"><circle cx="3" cy="3" r="3"/></g>
<g transform="translate(648,576) scale(4.12)"><circle cx="3" cy="3" r="3"/></g>
<g transform="translate(672,576) scale(4.12)"><circle cx="3" cy="3" r="3"/></g>
<g transform="translate(696,576) scale(4.12)"><circle cx="3" cy="3" r="3"/></g>
<g transform="translate(720,576) scale(4.12)"><circle cx="3" cy="3" r="3"/></g>
<g transform="translate(768,576) scale(4.12)"><circle cx="3" cy="3" r="3"/></g>
<g transform="translate(840,576) scale(4.12)"><circle cx="3" cy="3" r="3"/></g>
<g transform="translate(864,576) scale(4.12)"><circle cx="3" cy="3" r="3"/></g>
<g transform="translate(888,576) scale(4.12)"><circle cx="3" cy="3" r="3"/></g>
<g transform="translate(912,576) scale(4.12)"><circle cx="3" cy="3" r="3"/></g>
<g transform="translate(168,600) scale(4.12)"><circle cx="3" cy="3" r="3"/></g>
<g transform="translate(264,600) scale(4.12)"><circle cx="3" cy="3" r="3"/></g>
<g transform="translate(336,600) scale(4.12)"><circle cx="3" cy="3" r="3"/></g>
<g transform="translate(360,600) scale(4.12)"><circle cx="3" cy="3" r="3"/></g>
<g transform="translate(384,600) scale(4.12)"><circle cx="3" cy="3" r="3"/></g>
<g transform="translate(456,600) scale(4.12)"><circle cx="3" cy="3" r="3"/></g>
<g transform="translate(504,600) scale(4.12)"><circle cx="3" cy="3" r="3"/></g>
<g transform="translate(576,600) scale(4.12)"><circle cx="3" cy="3" r="3"/></g>
<g transform="translate(648,600) scale(4.12)"><circle cx="3" cy="3" r="3"/></g>
<g transform="translate(696,600) scale(4.12)"><circle cx="3" cy="3" r="3"/></g>
<g transform="translate(720,600) scale(4.12)"><circle cx="3" cy="3" r="3"/></g>
<g transform="translate(792,600) scale(4.12)"><circle cx="3" cy="3" r="3"/></g>
<g transform="translate(912,600) scale(4.12)"><circle cx="3" cy="3" r="3"/></g>
<g transform="translate(48,624) scale(4.12)"><circle cx="3" cy="3" r="3"/></g>
<g transform="translate(168,624) scale(4.12)"><circle cx="3" cy="3" r="3"/></g>
<g transform="translate(192,624) scale(4.12)"><circle cx="3" cy="3" r="3"/></g>
<g transform="translate(264,624) scale(4.12)"><circle cx="3" cy="3" r="3"/></g>
<g transform="translate(336,624) scale(4.12)"><circle cx="3" cy="3" r="3"/></g>
<g transform="translate(408,624) scale(4.12)"><circle cx="3" cy="3" r="3"/></g>
<g transform="translate(432,624) scale(4.12)"><circle cx="3" cy="3" r="3"/></g>
<g transform="translate(480,624) scale(4.12)"><circle cx="3" cy="3" r="3"/></g>
<g transform="translate(504,624) scale(4.12)"><circle cx="3" cy="3" r="3"/></g>
<g transform="translate(528,624) scale(4.12)"><circle cx="3" cy="3" r="3"/></g>
<g transform="translate(552,624) scale(4.12)"><circle cx="3" cy="3" r="3"/></g>
<g transform="translate(600,624) scale(4.12)"><circle cx="3" cy="3" r="3"/></g>
<g transform="translate(648,624) scale(4.12)"><circle cx="3" cy="3" r="3"/></g>
<g transform="translate(672,624) scale(4.12)"><circle cx="3" cy="3" r="3"/></g>
<g transform="translate(696,624) scale(4.12)"><circle cx="3" cy="3" r="3"/></g>
<g transform="translate(744,624) scale(4.12)"><circle cx="3" cy="3" r="3"/></g>
<g transform="translate(768,624) scale(4.12)"><circle cx="3" cy="3" r="3"/></g>
<g transform="translate(792,624) scale(4.12)"><circle cx="3" cy="3" r="3"/></g>
<g transform="translate(816,624) scale(4.12)"><circle cx="3" cy="3" r="3"/></g>
<g transform="translate(840,624) scale(4.12)"><circle cx="3" cy="3" r="3"/></g>
<g transform="translate(864,624) scale(4.12)"><circle cx="3" cy="3" r="3"/></g>
<g transform="translate(888,624) scale(4.12)"><circle cx="3" cy="3" r="3"/></g>
<g transform="translate(912,624) scale(4.12)"><circle cx="3" cy="3" r="3"/></g>
<g transform="translate(48,648) scale(4.12)"><circle cx="3" cy="3" r="3"/></g>
<g transform="translate(216,648) scale(4.12)"><circle cx="3" cy="3" r="3"/></g>
<g transform="translate(408,648) scale(4.12)"><circle cx="3" cy="3" r="3"/></g>
<g transform="translate(504,648) scale(4.12)"><circle cx="3" cy="3" r="3"/></g>
<g transform="translate(528,648) scale(4.12)"><circle cx="3" cy="3" r="3"/></g>
<g transform="translate(552,648) scale(4.12)"><circle cx="3" cy="3" r="3"/></g>
<g transform="translate(624,648) scale(4.12)"><circle cx="3" cy="3" r="3"/></g>
<g transform="translate(648,648) scale(4.12)"><circle cx="3" cy="3" r="3"/></g>
<g transform="translate(672,648) scale(4.12)"><circle cx="3" cy="3" r="3"/></g>
<g transform="translate(720,648) scale(4.12)"><circle cx="3" cy="3" r="3"/></g>
<g transform="translate(792,648) scale(4.12)"><circle cx="3" cy="3" r="3"/></g>
<g transform="translate(840,648) scale(4.12)"><circle cx="3" cy="3" r="3"/></g>
<g transform="translate(888,648) scale(4.12)"><circle cx="3" cy="3" r="3"/></g>
<g transform="translate(48,672) scale(4.12)"><circle cx="3" cy="3" r="3"/></g>
<g transform="translate(96,672) scale(4.12)"><circle cx="3" cy="3" r="3"/></g>
<g transform="translate(120,672) scale(4.12)"><circle cx="3" cy="3" r="3"/></g>
<g transform="translate(144,672) scale(4.12)"><circle cx="3" cy="3" r="3"/></g>
<g transform="translate(192,672) scale(4.12)"><circle cx="3" cy="3" r="3"/></g>
<g transform="translate(216,672) scale(4.12)"><circle cx="3" cy="3" r="3"/></g>
<g transform="translate(264,672) scale(4.12)"><circle cx="3" cy="3" r="3"/></g>
<g transform="translate(312,672) scale(4.12)"><circle cx="3" cy="3" r="3"/></g>
<g transform="translate(336,672) scale(4.12)"><circle cx="3" cy="3" r="3"/></g>
<g transform="translate(360,672) scale(4.12)"><circle cx="3" cy="3" r="3"/></g>
<g transform="translate(432,672) scale(4.12)"><circle cx="3" cy="3" r="3"/></g>
<g transform="translate(480,672) scale(4.12)"><circle cx="3" cy="3" r="3"/></g>
<g transform="translate(528,672) scale(4.12)"><circle cx="3" cy="3" r="3"/></g>
<g transform="translate(600,672) scale(4.12)"><circle cx="3" cy="3" r="3"/></g>
<g transform="translate(648,672) scale(4.12)"><circle cx="3" cy="3" r="3"/></g>
<g transform="translate(672,672) scale(4.12)"><circle cx="3" cy="3" r="3"/></g>
<g transform="translate(696,672) scale(4.12)"><circle cx="3" cy="3" r="3"/></g>
<g transform="translate(768,672) scale(4.12)"><circle cx="3" cy="3" r="3"/></g>
<g transform="translate(792,672) scale(4.12)"><circle cx="3" cy="3" r="3"/></g>
<g transform="translate(888,672) scale(4.12)"><circle cx="3" cy="3" r="3"/></g>
<g transform="translate(912,672) scale(4.12)"><circle cx="3" cy="3" r="3"/></g>
<g transform="translate(48,696) scale(4.12)"><circle cx="3" cy="3" r="3"/></g>
<g transform="translate(96,696) scale(4.12)"><circle cx="3" cy="3" r="3"/></g>
<g transform="translate(168,696) scale(4.12)"><circle cx="3" cy="3" r="3"/></g>
<g transform="translate(216,696) scale(4.12)"><circle cx="3" cy="3" r="3"/></g>
<g transform="translate(312,696) scale(4.12)"><circle cx="3" cy="3" r="3"/></g>
<g transform="translate(384,696) scale(4.12)"><circle cx="3" cy="3" r="3"/></g>
<g transform="translate(456,696) scale(4.12)"><circle cx="3" cy="3" r="3"/></g>
<g transform="translate(576,696) scale(4.12)"><circle cx="3" cy="3" r="3"/></g>
<g transform="translate(648,696) scale(4.12)"><circle cx="3" cy="3" r="3"/></g>
<g transform="translate(696,696) scale(4.12)"><circle cx="3" cy="3" r="3"/></g>
<g transform="translate(720,696) scale(4.12)"><circle cx="3" cy="3" r="3"/></g>
<g transform="translate(744,696) scale(4.12)"><circle cx="3" cy="3" r="3"/></g>
<g transform="translate(816,696) scale(4.12)"><circle cx="3" cy="3" r="3"/></g>
<g transform="translate(912,696) scale(4.12)"><circle cx="3" cy="3" r="3"/></g>
<g transform="translate(48,720) scale(4.12)"><circle cx="3" cy="3" r="3"/></g>
<g transform="translate(96,720) scale(4.12)"><circle cx="3" cy="3" r="3"/></g>
<g transform="translate(120,720) scale(4.12)"><circle cx="3" cy="3" r="3"/></g>
<g transform="translate(144,720) scale(4.12)"><circle cx="3" cy="3" r="3"/></g>
<g transform="translate(168,720) scale(4.12)"><circle cx="3" cy="3" r="3"/></g>
<g transform="translate(192,720) scale(4.12)"><circle cx="3" cy="3" r="3"/></g>
<g transform="translate(240,720) scale(4.12)"><circle cx="3" cy="3" r="3"/></g>
<g transform="translate(288,720) scale(4.12)"><circle cx="3" cy="3" r="3"/></g>
<g transform="translate(312,720) scale(4.12)"><circle cx="3" cy="3" r="3"/></g>
<g transform="translate(360,720) scale(4.12)"><circle cx="3" cy="3" r="3"/></g>
<g transform="translate(480,720) scale(4.12)"><circle cx="3" cy="3" r="3"/></g>
<g transform="translate(504,720) scale(4.12)"><circle cx="3" cy="3" r="3"/></g>
<g transform="translate(528,720) scale(4.12)"><circle cx="3" cy="3" r="3"/></g>
<g transform="translate(624,720) scale(4.12)"><circle cx="3" cy="3" r="3"/></g>
<g transform="translate(672,720) scale(4.12)"><circle cx="3" cy="3" r="3"/></g>
<g transform="translate(696,720) scale(4.12)"><circle cx="3" cy="3" r="3"/></g>
<g transform="translate(720,720) scale(4.12)"><circle cx="3" cy="3" r="3"/></g>
<g transform="translate(744,720) scale(4.12)"><circle cx="3" cy="3" r="3"/></g>
<g transform="translate(768,720) scale(4.12)"><circle cx="3" cy="3" r="3"/></g>
<g transform="translate(792,720) scale(4.12)"><circle cx="3" cy="3" r="3"/></g>
<g transform="translate(816,720) scale(4.12)"><circle cx="3" cy="3" r="3"/></g>
<g transform="translate(864,720) scale(4.12)"><circle cx="3" cy="3" r="3"/></g>
<g transform="translate(240,744) scale(4.12)"><circle cx="3" cy="3" r="3"/></g>
<g transform="translate(264,744) scale(4.12)"><circle cx="3" cy="3" r="3"/></g>
<g transform="translate(336,744) scale(4.12)"><circle cx="3" cy="3" r="3"/></g>
<g transform="translate(480,744) scale(4.12)"><circle cx="3" cy="3" r="3"/></g>
<g transform="translate(624,744) scale(4.12)"><circle cx="3" cy="3" r="3"/></g>
<g transform="translate(720,744) scale(4.12)"><circle cx="3" cy="3" r="3"/></g>
<g transform="translate(816,744) scale(4.12)"><circle cx="3" cy="3" r="3"/></g>
<g transform="translate(240,768) scale(4.12)"><circle cx="3" cy="3" r="3"/></g>
<g transform="translate(264,768) scale(4.12)"><circle cx="3" cy="3" r="3"/></g>
<g transform="translate(288,768) scale(4.12)"><circle cx="3" cy="3" r="3"/></g>
<g transform="translate(360,768) scale(4.12)"><circle cx="3" cy="3" r="3"/></g>
<g transform="translate(408,768) scale(4.12)"><circle cx="3" cy="3" r="3"/></g>
<g transform="translate(432,768) scale(4.12)"><circle cx="3" cy="3" r="3"/></g>
<g transform="translate(456,768) scale(4.12)"><circle cx="3" cy="3" r="3"/></g>
<g transform="translate(480,768) scale(4.12)"><circle cx="3" cy="3" r="3"/></g>
<g transform="translate(528,768) scale(4.12)"><circle cx="3" cy="3" r="3"/></g>
<g transform="translate(600,768) scale(4.12)"><circle cx="3" cy="3" r="3"/></g>
<g transform="translate(648,768) scale(4.12)"><circle cx="3" cy="3" r="3"/></g>
<g transform="translate(720,768) scale(4.12)"><circle cx="3" cy="3" r="3"/></g>
<g transform="translate(768,768) scale(4.12)"><circle cx="3" cy="3" r="3"/></g>
<g transform="translate(816,768) scale(4.12)"><circle cx="3" cy="3" r="3"/></g>
<g transform="translate(864,768) scale(4.12)"><circle cx="3" cy="3" r="3"/></g>
<g transform="translate(888,768) scale(4.12)"><circle cx="3" cy="3" r="3"/></g>
<g transform="translate(912,768) scale(4.12)"><circle cx="3" cy="3" r="3"/></g>
<g transform="translate(264,792) scale(4.12)"><circle cx="3" cy="3" r="3"/></g>
<g transform="translate(288,792) scale(4.12)"><circle cx="3" cy="3" r="3"/></g>
<g transform="translate(336,792) scale(4.12)"><circle cx="3" cy="3" r="3"/></g>
<g transform="translate(384,792) scale(4.12)"><circle cx="3" cy="3" r="3"/></g>
<g transform="translate(480,792) scale(4.12)"><circle cx="3" cy="3" r="3"/></g>
<g transform="translate(504,792) scale(4.12)"><circle cx="3" cy="3" r="3"/></g>
<g transform="translate(552,792) scale(4.12)"><circle cx="3" cy="3" r="3"/></g>
<g transform="translate(576,792) scale(4.12)"><circle cx="3" cy="3" r="3"/></g>
<g transform="translate(624,792) scale(4.12)"><circle cx="3" cy="3" r="3"/></g>
<g transform="translate(648,792) scale(4.12)"><circle cx="3" cy="3" r="3"/></g>
<g transform="translate(720,792) scale(4.12)"><circle cx="3" cy="3" r="3"/></g>
<g transform="translate(816,792) scale(4.12)"><circle cx="3" cy="3" r="3"/></g>
<g transform="translate(840,792) scale(4.12)"><circle cx="3" cy="3" r="3"/></g>
<g transform="translate(888,792) scale(4.12)"><circle cx="3" cy="3" r="3"/></g>
<g transform="translate(912,792) scale(4.12)"><circle cx="3" cy="3" r="3"/></g>
<g transform="translate(240,816) scale(4.12)"><circle cx="3" cy="3" r="3"/></g>
<g transform="translate(336,816) scale(4.12)"><circle cx="3" cy="3" r="3"/></g>
<g transform="translate(360,816) scale(4.12)"><circle cx="3" cy="3" r="3"/></g>
<g transform="translate(408,816) scale(4.12)"><circle cx="3" cy="3" r="3"/></g>
<g transform="translate(480,816) scale(4.12)"><circle cx="3" cy="3" r="3"/></g>
<g transform="translate(504,816) scale(4.12)"><circle cx="3" cy="3" r="3"/></g>
<g transform="translate(552,816) scale(4.12)"><circle cx="3" cy="3" r="3"/></g>
<g transform="translate(600,816) scale(4.12)"><circle cx="3" cy="3" r="3"/></g>
<g transform="translate(672,816) scale(4.12)"><circle cx="3" cy="3" r="3"/></g>
<g transform="translate(696,816) scale(4.12)"><circle cx="3" cy="3" r="3"/></g>
<g transform="translate(720,816) scale(4.12)"><circle cx="3" cy="3" r="3"/></g>
<g transform="translate(744,816) scale(4.12)"><circle cx="3" cy="3" r="3"/></g>
<g transform="translate(768,816) scale(4.12)"><circle cx="3" cy="3" r="3"/></g>
<g transform="translate(792,816) scale(4.12)"><circle cx="3" cy="3" r="3"/></g>
<g transform="translate(816,816) scale(4.12)"><circle cx="3" cy="3" r="3"/></g>
<g transform="translate(840,816) scale(4.12)"><circle cx="3" cy="3" r="3"/></g>
<g transform="translate(864,816) scale(4.12)"><circle cx="3" cy="3" r="3"/></g>
<g transform="translate(912,816) scale(4.12)"><circle cx="3" cy="3" r="3"/></g>
<g transform="translate(240,840) scale(4.12)"><circle cx="3" cy="3" r="3"/></g>
<g transform="translate(264,840) scale(4.12)"><circle cx="3" cy="3" r="3"/></g>
<g transform="translate(384,840) scale(4.12)"><circle cx="3" cy="3" r="3"/></g>
<g transform="translate(408,840) scale(4.12)"><circle cx="3" cy="3" r="3"/></g>
<g transform="translate(432,840) scale(4.12)"><circle cx="3" cy="3" r="3"/></g>
<g transform="translate(528,840) scale(4.12)"><circle cx="3" cy="3" r="3"/></g>
<g transform="translate(552,840) scale(4.12)"><circle cx="3" cy="3" r="3"/></g>
<g transform="translate(576,840) scale(4.12)"><circle cx="3" cy="3" r="3"/></g>
<g transform="translate(600,840) scale(4.12)"><circle cx="3" cy="3" r="3"/></g>
<g transform="translate(624,840) scale(4.12)"><circle cx="3" cy="3" r="3"/></g>
<g transform="translate(672,840) scale(4.12)"><circle cx="3" cy="3" r="3"/></g>
<g transform="translate(696,840) scale(4.12)"><circle cx="3" cy="3" r="3"/></g>
<g transform="translate(720,840) scale(4.12)"><circle cx="3" cy="3" r="3"/></g>
<g transform="translate(744,840) scale(4.12)"><circle cx="3" cy="3" r="3"/></g>
<g transform="translate(768,840) scale(4.12)"><circle cx="3" cy="3" r="3"/></g>
<g transform="translate(816,840) scale(4.12)"><circle cx="3" cy="3" r="3"/></g>
<g transform="translate(864,840) scale(4.12)"><circle cx="3" cy="3" r="3"/></g>
<g transform="translate(240,864) scale(4.12)"><circle cx="3" cy="3" r="3"/></g>
<g transform="translate(264,864) scale(4.12)"><circle cx="3" cy="3" r="3"/></g>
<g transform="translate(288,864) scale(4.12)"><circle cx="3" cy="3" r="3"/></g>
<g transform="translate(312,864) scale(4.12)"><circle cx="3" cy="3" r="3"/></g>
<g transform="translate(336,864) scale(4.12)"><circle cx="3" cy="3" r="3"/></g>
<g transform="translate(408,864) scale(4.12)"><circle cx="3" cy="3" r="3"/></g>
<g transform="translate(432,864) scale(4.12)"><circle cx="3" cy="3" r="3"/></g>
<g transform="translate(456,864) scale(4.12)"><circle cx="3" cy="3" r="3"/></g>
<g transform="translate(480,864) scale(4.12)"><circle cx="3" cy="3" r="3"/></g>
<g transform="translate(528,864) scale(4.12)"><circle cx="3" cy="3" r="3"/></g>
<g transform="translate(672,864) scale(4.12)"><circle cx="3" cy="3" r="3"/></g>
<g transform="translate(720,864) scale(4.12)"><circle cx="3" cy="3" r="3"/></g>
<g transform="translate(792,864) scale(4.12)"><circle cx="3" cy="3" r="3"/></g>
<g transform="translate(840,864) scale(4.12)"><circle cx="3" cy="3" r="3"/></g>
<g transform="translate(864,864) scale(4.12)"><circle cx="3" cy="3" r="3"/></g>
<g transform="translate(912,864) scale(4.12)"><circle cx="3" cy="3" r="3"/></g>
<g transform="translate(240,888) scale(4.12)"><circle cx="3" cy="3" r="3"/></g>
<g transform="translate(312,888) scale(4.12)"><circle cx="3" cy="3" r="3"/></g>
<g transform="translate(504,888) scale(4.12)"><circle cx="3" cy="3" r="3"/></g>
<g transform="translate(552,888) scale(4.12)"><circle cx="3" cy="3" r="3"/></g>
<g transform="translate(576,888) scale(4.12)"><circle cx="3" cy="3" r="3"/></g>
<g transform="translate(600,888) scale(4.12)"><circle cx="3" cy="3" r="3"/></g>
<g transform="translate(648,888) scale(4.12)"><circle cx="3" cy="3" r="3"/></g>
<g transform="translate(672,888) scale(4.12)"><circle cx="3" cy="3" r="3"/></g>
<g transform="translate(696,888) scale(4.12)"><circle cx="3" cy="3" r="3"/></g>
<g transform="translate(720,888) scale(4.12)"><circle cx="3" cy="3" r="3"/></g>
<g transform="translate(744,888) scale(4.12)"><circle cx="3" cy="3" r="3"/></g>
<g transform="translate(792,888) scale(4.12)"><circle cx="3" cy="3" r="3"/></g>
<g transform="translate(816,888) scale(4.12)"><circle cx="3" cy="3" r="3"/></g>
<g transform="translate(912,888) scale(4.12)"><circle cx="3" cy="3" r="3"/></g>
<g transform="translate(240,912) scale(4.12)"><circle cx="3" cy="3" r="3"/></g>
<g transform="translate(264,912) scale(4.12)"><circle cx="3" cy="3" r="3"/></g>
<g transform="translate(312,912) scale(4.12)"><circle cx="3" cy="3" r="3"/></g>
<g transform="translate(336,912) scale(4.12)"><circle cx="3" cy="3" r="3"/></g>
<g transform="translate(456,912) scale(4.12)"><circle cx="3" cy="3" r="3"/></g>
<g transform="translate(480,912) scale(4.12)"><circle cx="3" cy="3" r="3"/></g>
<g transform="translate(576,912) scale(4.12)"><circle cx="3" cy="3" r="3"/></g>
<g transform="translate(600,912) scale(4.12)"><circle cx="3" cy="3" r="3"/></g>
<g transform="translate(624,912) scale(4.12)"><circle cx="3" cy="3" r="3"/></g>
<g transform="translate(672,912) scale(4.12)"><circle cx="3" cy="3" r="3"/></g>
<g transform="translate(744,912) scale(4.12)"><circle cx="3" cy="3" r="3"/></g>
<g transform="translate(792,912) scale(4.12)"><circle cx="3" cy="3" r="3"/></g>
<g transform="translate(840,912) scale(4.12)"><circle cx="3" cy="3" r="3"/></g>
<g transform="translate(864,912) scale(4.12)"><circle cx="3" cy="3" r="3"/></g>
<g transform="translate(888,912) scale(4.12)"><circle cx="3" cy="3" r="3"/></g>
<g transform="translate(912,912) scale(4.12)"><circle cx="3" cy="3" r="3"/></g>
</g><g><g transform="translate(48,48)" fill="#98db3b"><g transform="scale(12)"><path d="M4.5,14h5.1C12,14,14,12,14,9.6V4.5C14,2,12,0,9.5,0H4.4C2,0,0,2,0,4.4v5.1C0,12,2,14,4.5,14z M12,4.8v4.4 c0,1.5-1.3,2.8-2.8,2.8H4.8C3.2,12,2,10.8,2,9.2V4.8C2,3.3,3.3,2,4.8,2h4.4C10.8,2,12,3.2,12,4.8z"/></g></g>
<g transform="translate(768,48)" fill="#98db3b"><g transform="scale(12)"><path d="M4.5,14h5.1C12,14,14,12,14,9.6V4.5C14,2,12,0,9.5,0H4.4C2,0,0,2,0,4.4v5.1C0,12,2,14,4.5,14z M12,4.8v4.4 c0,1.5-1.3,2.8-2.8,2.8H4.8C3.2,12,2,10.8,2,9.2V4.8C2,3.3,3.3,2,4.8,2h4.4C10.8,2,12,3.2,12,4.8z"/></g></g>
<g transform="translate(48,768)" fill="#98db3b"><g transform="scale(12)"><path d="M4.5,14h5.1C12,14,14,12,14,9.6V4.5C14,2,12,0,9.5,0H4.4C2,0,0,2,0,4.4v5.1C0,12,2,14,4.5,14z M12,4.8v4.4 c0,1.5-1.3,2.8-2.8,2.8H4.8C3.2,12,2,10.8,2,9.2V4.8C2,3.3,3.3,2,4.8,2h4.4C10.8,2,12,3.2,12,4.8z"/></g></g>
<g transform="translate(96,96)" fill="#98db3b"><g transform="scale(12)"><path d="M6,1.7v2.7C6,5.2,5.2,6,4.3,6H1.7C0.7,6,0,5.3,0,4.3V1.7C0,0.8,0.8,0,1.7,0h2.7C5.3,0,6,0.7,6,1.7z"/></g></g>
<g transform="translate(816,96)" fill="#98db3b"><g transform="scale(12)"><path d="M6,1.7v2.7C6,5.2,5.2,6,4.3,6H1.7C0.7,6,0,5.3,0,4.3V1.7C0,0.8,0.8,0,1.7,0h2.7C5.3,0,6,0.7,6,1.7z"/></g></g>
<g transform="translate(96,816)" fill="#98db3b"><g transform="scale(12)"><path d="M6,1.7v2.7C6,5.2,5.2,6,4.3,6H1.7C0.7,6,0,5.3,0,4.3V1.7C0,0.8,0.8,0,1.7,0h2.7C5.3,0,6,0.7,6,1.7z"/></g></g></g></svg>
