<?xml version="1.0" encoding="utf-8"?>
<svg xmlns="http://www.w3.org/2000/svg" xmlns:xlink="http://www.w3.org/1999/xlink" xml:space="preserve" width="296" height="296" viewBox="0 0 296 296"><rect width="296" height="296" fill="#15171a" x="0" y="0"/><g fill="#98db3b">
<g transform="translate(96,16) scale(1.3733333333333)"><circle cx="3" cy="3" r="2"/></g>
<g transform="translate(112,16) scale(1.3733333333333)"><circle cx="3" cy="3" r="2"/></g>
<g transform="translate(144,16) scale(1.3733333333333)"><circle cx="3" cy="3" r="2"/></g>
<g transform="translate(160,16) scale(1.3733333333333)"><circle cx="3" cy="3" r="2"/></g>
<g transform="translate(200,16) scale(1.3733333333333)"><circle cx="3" cy="3" r="2"/></g>
<g transform="translate(80,24) scale(1.3733333333333)"><circle cx="3" cy="3" r="2"/></g>
<g transform="translate(96,24) scale(1.3733333333333)"><circle cx="3" cy="3" r="3"/></g>
<g transform="translate(120,24) scale(1.3733333333333)"><circle cx="3" cy="3" r="2"/></g>
<g transform="translate(136,24) scale(1.3733333333333)"><circle cx="3" cy="3" r="3"/></g>
<g transform="translate(144,24) scale(1.3733333333333)"><circle cx="3" cy="3" r="2"/></g>
<g transform="translate(168,24) scale(1.3733333333333)"><circle cx="3" cy="3" r="3"/></g>
<g transform="translate(176,24) scale(1.3733333333333)"><circle cx="3" cy="3" r="3"/></g>
<g transform="translate(192,24) scale(1.3733333333333)"><circle cx="3" cy="3" r="2"/></g>
<g transform="translate(112,32) scale(1.3733333333333)"><circle cx="3" cy="3" r="2"/></g>
<g transform="translate(128,32) scale(1.3733333333333)"><circle cx="3" cy="3" r="2"/></g>
<g transform="translate(152,32) scale(1.3733333333333)"><circle cx="3" cy="3" r="2"/></g>
<g transform="translate(184,32) scale(1.3733333333333)"><circle cx="3" cy="3" r="2"/></g>
<g transform="translate(80,40) scale(1.3733333333333)"><circle cx="3" cy="3" r="3"/></g>
<g transform="translate(88,40) scale(1.3733333333333)"><circle cx="3" cy="3" r="2"/></g>
<g transform="translate(96,40) scale(1.3733333333333)"><circle cx="3" cy="3" r="3"/></g>
<g transform="translate(112,40) scale(1.3733333333333)"><circle cx="3" cy="3" r="3"/></g>
<g transform="translate(128,40) scale(1.3733333333333)"><circle cx="3" cy="3" r="3"/></g>
<g transform="translate(136,40) scale(1.3733333333333)"><circle cx="3" cy="3" r="2"/></g>
<g transform="translate(144,40) scale(1.3733333333333)"><circle cx="3" cy="3" r="3"/></g>
<g transform="translate(160,40) scale(1.3733333333333)"><circle cx="3" cy="3" r="3"/></g>
<g transform="translate(168,40) scale(1.3733333333333)"><circle cx="3" cy="3" r="2"/></g>
<g transform="translate(176,40) scale(1.3733333333333)"><circle cx="3" cy="3" r="3"/></g>
<g transform="translate(192,40) scale(1.3733333333333)"><circle cx="3" cy="3" r="2"/></g>
<g transform="translate(208,40) scale(1.3733333333333)"><circle cx="3" cy="3" r="2"/></g>
<g transform="translate(88,48) scale(1.3733333333333)"><circle cx="3" cy="3" r="2"/></g>
<g transform="translate(120,48) scale(1.3733333333333)"><circle cx="3" cy="3" r="2"/></g>
<g transform="translate(136,48) scale(1.3733333333333)"><circle cx="3" cy="3" r="2"/></g>
<g transform="translate(152,48) scale(1.3733333333333)"><circle cx="3" cy="3" r="2"/></g>
<g transform="translate(168,48) scale(1.3733333333333)"><circle cx="3" cy="3" r="3"/></g>
<g transform="translate(184,48) scale(1.3733333333333)"><circle cx="3" cy="3" r="2"/></g>
<g transform="translate(192,48) scale(1.3733333333333)"><circle cx="3" cy="3" r="2"/></g>
<g transform="translate(200,48) scale(1.3733333333333)"><circle cx="3" cy="3" r="3"/></g>
<g transform="translate(80,56) scale(1.3733333333333)"><circle cx="3" cy="3" r="2"/></g>
<g transform="translate(88,56) scale(1.3733333333333)"><circle cx="3" cy="3" r="2"/></g>
<g transform="translate(104,56) scale(1.3733333333333)"><circle cx="3" cy="3" r="3"/></g>
<g transform="translate(112,56) scale(1.3733333333333)"><circle cx="3" cy="3" r="2"/></g>
<g transform="translate(120,56) scale(1.3733333333333)"><circle cx="3" cy="3" r="2"/></g>
<g transform="translate(136,56) scale(1.3733333333333)"><circle cx="3" cy="3" r="3"/></g>
<g transform="translate(144,56) scale(1.3733333333333)"><circle cx="3" cy="3" r="2"/></g>
<g transform="translate(176,56) scale(1.3733333333333)"><circle cx="3" cy="3" r="2"/></g>
<g transform="translate(184,56) scale(1.3733333333333)"><circle cx="3" cy="3" r="2"/></g>
<g transform="translate(192,56) scale(1.3733333333333)"><circle cx="3" cy="3" r="2"/></g>
<g transform="translate(208,56) scale(1.3733333333333)"><circle cx="3" cy="3" r="2"/></g>
<g transform="translate(80,64) scale(1.3733333333333)"><circle cx="3" cy="3" r="3"/></g>
<g transform="translate(96,64) scale(1.3733333333333)"><circle cx="3" cy="3" r="2"/></g>
<g transform="translate(112,64) scale(1.3733333333333)"><circle cx="3" cy="3" r="3"/></g>
<g transform="translate(128,64) scale(1.3733333333333)"><circle cx="3" cy="3" r="2"/></g>
<g transform="translate(144,64) scale(1.3733333333333)"><circle cx="3" cy="3" r="3"/></g>
<g transform="translate(160,64) scale(1.3733333333333)"><circle cx="3" cy="3" r="2"/></g>
<g transform="translate(176,64) scale(1.3733333333333)"><circle cx="3" cy="3" r="2"/></g>
<g transform="translate(192,64) scale(1.3733333333333)"><circle cx="3" cy="3" r="3"/></g>
<g transform="translate(208,64) scale(1.3733333333333)"><circle cx="3" cy="3" r="3"/></g>
<g transform="translate(88,72) scale(1.3733333333333)"><circle cx="3" cy="3" r="2"/></g>
<g transform="translate(96,72) scale(1.3733333333333)"><circle cx="3" cy="3" r="2"/></g>
<g transform="translate(104,72) scale(1.3733333333333)"><circle cx="3" cy="3" r="2"/></g>
<g transform="translate(128,72) scale(1.3733333333333)"><circle cx="3" cy="3" r="3"/></g>
<g transform="translate(152,72) scale(1.3733333333333)"><circle cx="3" cy="3" r="2"/></g>
<g transform="translate(168,72) scale(1.3733333333333)"><circle cx="3" cy="3" r="2"/></g>
<g transform="translate(176,72) scale(1.3733333333333)"><circle cx="3" cy="3" r="2"/></g>
<g transform="translate(184,72) scale(1.3733333333333)"><circle cx="3" cy="3" r="3"/></g>
<g transform="translate(16,80) scale(1.3733333333333)"><circle cx="3" cy="3" r="2"/></g>
<g transform="translate(24,80) scale(1.3733333333333)"><circle cx="3" cy="3" r="2"/></g>
<g transform="translate(32,80) scale(1.3733333333333)"><circle cx="3" cy="3" r="2"/></g>
<g transform="translate(40,80) scale(1.3733333333333)"><circle cx="3" cy="3" r="2"/></g>
<g transform="translate(48,80) scale(1.3733333333333)"><circle cx="3" cy="3" r="3"/></g>
<g transform="translate(64,80) scale(1.3733333333333)"><circle cx="3" cy="3" r="3"/></g>
<g transform="translate(72,80) scale(1.3733333333333)"><circle cx="3" cy="3" r="2"/></g>
<g transform="translate(80,80) scale(1.3733333333333)"><circle cx="3" cy="3" r="2"/></g>
<g transform="translate(88,80) scale(1.3733333333333)"><circle cx="3" cy="3" r="2"/></g>
<g transform="translate(104,80) scale(1.3733333333333)"><circle cx="3" cy="3" r="3"/></g>
<g transform="translate(112,80) scale(1.3733333333333)"><circle cx="3" cy="3" r="2"/></g>
<g transform="translate(152,80) scale(1.3733333333333)"><circle cx="3" cy="3" r="2"/></g>
<g transform="translate(168,80) scale(1.3733333333333)"><circle cx="3" cy="3" r="3"/></g>
<g transform="translate(216,80) scale(1.3733333333333)"><circle cx="3" cy="3" r="2"/></g>
<g transform="translate(232,80) scale(1.3733333333333)"><circle cx="3" cy="3" r="2"/></g>
<g transform="translate(248,80) scale(1.3733333333333)"><circle cx="3" cy="3" r="2"/></g>
<g transform="translate(264,80) scale(1.3733333333333)"><circle cx="3" cy="3" r="2"/></g>
<g transform="translate(16,88) scale(1.3733333333333)"><circle cx="3" cy="3" r="3"/></g>
<g transform="translate(96,88) scale(1.3733333333333)"><circle cx="3" cy="3" r="2"/></g>
<g transform="translate(112,88) scale(1.3733333333333)"><circle cx="3" cy="3" r="2"/></g>
<g transform="translate(120,88) scale(1.3733333333333)"><circle cx="3" cy="3" r="2"/></g>
<g transform="translate(128,88) scale(1.3733333333333)"><circle cx="3" cy="3" r="3"/></g>
<g transform="translate(152,88) scale(1.3733333333333)"><circle cx="3" cy="3" r="3"/></g>
<g transform="translate(176,88) scale(1.3733333333333)"><circle cx="3" cy="3" r="2"/></g>
<g transform="translate(200,88) scale(1.3733333333333)"><circle cx="3" cy="3" r="2"/></g>
<g transform="translate(224,88) scale(1.3733333333333)"><circle cx="3" cy="3" r="2"/></g>
<g transform="translate(256,88) scale(1.3733333333333)"><circle cx="3" cy="3" r="3"/></g>
<g transform="translate(264,88) scale(1.3733333333333)"><circle cx="3" cy="3" r="2"/></g>
<g transform="translate(272,88) scale(1.3733333333333)"><circle cx="3" cy="3" r="3"/></g>
<g transform="translate(32,96) scale(1.3733333333333)"><circle cx="3" cy="3" r="2"/></g>
<g transform="translate(48,96) scale(1.3733333333333)"><circle cx="3" cy="3" r="2"/></g>
<g transform="translate(64,96) scale(1.3733333333333)"><circle cx="3" cy="3" r="3"/></g>
<g transform="translate(72,96) scale(1.3733333333333)"><circle cx="3" cy="3" r="2"/></g>
<g transform="translate(80,96) scale(1.3733333333333)"><circle cx="3" cy="3" r="2"/></g>
<g transform="translate(96,96) scale(1.3733333333333)"><circle cx="3" cy="3" r="3"/></g>
<g transform="translate(112,96) scale(1.3733333333333)"><circle cx="3" cy="3" r="2"/></g>
<g transform="translate(144,96) scale(1.3733333333333)"><circle cx="3" cy="3" r="2"/></g>
<g transform="translate(168,96) scale(1.3733333333333)"><circle cx="3" cy="3" r="3"/></g>
<g transform="translate(176,96) scale(1.3733333333333)"><circle cx="3" cy="3" r="2"/></g>
<g transform="translate(192,96) scale(1.3733333333333)"><circle cx="3" cy="3" r="2"/></g>
<g transform="translate(208,96) scale(1.3733333333333)"><circle cx="3" cy="3" r="2"/></g>
<g transform="translate(224,96) scale(1.3733333333333)"><circle cx="3" cy="3" r="3"/></g>
<g transform="translate(232,96) scale(1.3733333333333)"><circle cx="3" cy="3" r="3"/></g>
<g transform="translate(248,96) scale(1.3733333333333)"><circle cx="3" cy="3" r="2"/></g>
<g transform="translate(264,96) scale(1.3733333333333)"><circle cx="3" cy="3" r="3"/></g>
<g transform="translate(16,104) scale(1.3733333333333)"><circle cx="3" cy="3" r="3"/></g>
<g transform="translate(24,104) scale(1.3733333333333)"><circle cx="3" cy="3" r="2"/></g>
<g transform="translate(80,104) scale(1.3733333333333)"><circle cx="3" cy="3" r="2"/></g>
<g transform="translate(112,104) scale(1.3733333333333)"><circle cx="3" cy="3" r="3"/></g>
<g transform="translate(128,104) scale(1.3733333333333)"><circle cx="3" cy="3" r="2"/></g>
<g transform="translate(152,104) scale(1.3733333333333)"><circle cx="3" cy="3" r="2"/></g>
<g transform="translate(176,104) scale(1.3733333333333)"><circle cx="3" cy="3" r="2"/></g>
<g transform="translate(184,104) scale(1.3733333333333)"><circle cx="3" cy="3" r="3"/></g>
<g transform="translate(200,104) scale(1.3733333333333)"><circle cx="3" cy="3" r="2"/></g>
<g transform="translate(256,104) scale(1.3733333333333)"><circle cx="3" cy="3" r="2"/></g>
<g transform="translate(24,112) scale(1.3733333333333)"><circle cx="3" cy="3" r="3"/></g>
<g transform="translate(32,112) scale(1.3733333333333)"><circle cx="3" cy="3" r="2"/></g>
<g transform="translate(64,112) scale(1.3733333333333)"><circle cx="3" cy="3" r="3"/></g>
<g transform="translate(72,112) scale(1.3733333333333)"><circle cx="3" cy="3" r="2"/></g>
<g transform="translate(80,112) scale(1.3733333333333)"><circle cx="3" cy="3" r="2"/></g>
<g transform="translate(88,112) scale(1.3733333333333)"><circle cx="3" cy="3" r="2"/></g>
<g transform="translate(96,112) scale(1.3733333333333)"><circle cx="3" cy="3" r="3"/></g>
<g transform="translate(120,112) scale(1.3733333333333)"><circle cx="3" cy="3" r="2"/></g>
<g transform="translate(128,112) scale(1.3733333333333)"><circle cx="3" cy="3" r="2"/></g>
<g transform="translate(136,112) scale(1.3733333333333)"><circle cx="3" cy="3" r="2"/></g>
<g transform="translate(160,112) scale(1.3733333333333)"><circle cx="3" cy="3" r="2"/></g>
<g transform="translate(176,112) scale(1.3733333333333)"><circle cx="3" cy="3" r="2"/></g>
<g transform="translate(192,112) scale(1.3733333333333)"><circle cx="3" cy="3" r="3"/></g>
<g transform="translate(200,112) scale(1.3733333333333)"><circle cx="3" cy="3" r="2"/></g>
<g transform="translate(208,112) scale(1.3733333333333)"><circle cx="3" cy="3" r="2"/></g>
<g transform="translate(216,112) scale(1.3733333333333)"><circle cx="3" cy="3" r="2"/></g>
<g transform="translate(240,112) scale(1.3733333333333)"><circle cx="3" cy="3" r="3"/></g>
<g transform="translate(248,112) scale(1.3733333333333)"><circle cx="3" cy="3" r="3"/></g>
<g transform="translate(16,120) scale(1.3733333333333)"><circle cx="3" cy="3" r="2"/></g>
<g transform="translate(32,120) scale(1.3733333333333)"><circle cx="3" cy="3" r="3"/></g>
<g transform="translate(48,120) scale(1.3733333333333)"><circle cx="3" cy="3" r="2"/></g>
<g transform="translate(56,120) scale(1.3733333333333)"><circle cx="3" cy="3" r="2"/></g>
<g transform="translate(72,120) scale(1.3733333333333)"><circle cx="3" cy="3" r="3"/></g>
<g transform="translate(80,120) scale(1.3733333333333)"><circle cx="3" cy="3" r="2"/></g>
<g transform="translate(104,120) scale(1.3733333333333)"><circle cx="3" cy="3" r="3"/></g>
<g transform="translate(112,120) scale(1.3733333333333)"><circle cx="3" cy="3" r="2"/></g>
<g transform="translate(120,120) scale(1.3733333333333)"><circle cx="3" cy="3" r="2"/></g>
<g transform="translate(128,120) scale(1.3733333333333)"><circle cx="3" cy="3" r="2"/></g>
<g transform="translate(136,120) scale(1.3733333333333)"><circle cx="3" cy="3" r="2"/></g>
<g transform="translate(160,120) scale(1.3733333333333)"><circle cx="3" cy="3" r="3"/></g>
<g transform="translate(176,120) scale(1.3733333333333)"><circle cx="3" cy="3" r="3"/></g>
<g transform="translate(184,120) scale(1.3733333333333)"><circle cx="3" cy="3" r="3"/></g>
<g transform="translate(200,120) scale(1.3733333333333)"><circle cx="3" cy="3" r="3"/></g>
<g transform="translate(216,120) scale(1.3733333333333)"><circle cx="3" cy="3" r="2"/></g>
<g transform="translate(224,120) scale(1.3733333333333)"><circle cx="3" cy="3" r="3"/></g>
<g transform="translate(264,120) scale(1.3733333333333)"><circle cx="3" cy="3" r="2"/></g>
<g transform="translate(272,120) scale(1.3733333333333)"><circle cx="3" cy="3" r="3"/></g>
<g transform="translate(48,128) scale(1.3733333333333)"><circle cx="3" cy="3" r="3"/></g>
<g transform="translate(56,128) scale(1.3733333333333)"><circle cx="3" cy="3" r="2"/></g>
<g transform="translate(64,128) scale(1.3733333333333)"><circle cx="3" cy="3" r="3"/></g>
<g transform="translate(80,128) scale(1.3733333333333)"><circle cx="3" cy="3" r="2"/></g>
<g transform="translate(120,128) scale(1.3733333333333)"><circle cx="3" cy="3" r="2"/></g>
<g transform="translate(144,128) scale(1.3733333333333)"><circle cx="3" cy="3" r="2"/></g>
<g transform="translate(168,128) scale(1.3733333333333)"><circle cx="3" cy="3" r="2"/></g>
<g transform="translate(216,128) scale(1.3733333333333)"><circle cx="3" cy="3" r="2"/></g>
<g transform="translate(264,128) scale(1.3733333333333)"><circle cx="3" cy="3" r="3"/></g>
<g transform="translate(24,136) scale(1.3733333333333)"><circle cx="3" cy="3" r="2"/></g>
<g transform="translate(40,136) scale(1.3733333333333)"><circle cx="3" cy="3" r="2"/></g>
<g transform="translate(56,136) scale(1.3733333333333)"><circle cx="3" cy="3" r="3"/></g>
<g transform="translate(72,136) scale(1.3733333333333)"><circle cx="3" cy="3" r="2"/></g>
<g transform="translate(80,136) scale(1.3733333333333)"><circle cx="3" cy="3" r="2"/></g>
<g transform="translate(88,136) scale(1.3733333333333)"><circle cx="3" cy="3" r="2"/></g>
<g transform="translate(104,136) scale(1.3733333333333)"><circle cx="3" cy="3" r="3"/></g>
<g transform="translate(112,136) scale(1.3733333333333)"><circle cx="3" cy="3" r="2"/></g>
<g transform="translate(120,136) scale(1.3733333333333)"><circle cx="3" cy="3" r="2"/></g>
<g transform="translate(128,136) scale(1.3733333333333)"><circle cx="3" cy="3" r="3"/></g>
<g transform="translate(152,136) scale(1.3733333333333)"><circle cx="3" cy="3" r="2"/></g>
<g transform="translate(168,136) scale(1.3733333333333)"><circle cx="3" cy="3" r="3"/></g>
<g transform="translate(184,136) scale(1.3733333333333)"><circle cx="3" cy="3" r="3"/></g>
<g transform="translate(192,136) scale(1.3733333333333)"><circle cx="3" cy="3" r="2"/></g>
<g transform="translate(200,136) scale(1.3733333333333)"><circle cx="3" cy="3" r="2"/></g>
<g transform="translate(216,136) scale(1.3733333333333)"><circle cx="3" cy="3" r="2"/></g>
<g transform="translate(232,136) scale(1.3733333333333)"><circle cx="3" cy="3" r="2"/></g>
<g transform="translate(240,136) scale(1.3733333333333)"><circle cx="3" cy="3" r="2"/></g>
<g transform="translate(256,136) scale(1.3733333333333)"><circle cx="3" cy="3" r="2"/></g>
<g transform="translate(32,144) scale(1.3733333333333)"><circle cx="3" cy="3" r="2"/></g>
<g transform="translate(40,144) scale(1.3733333333333)"><circle cx="3" cy="3" r="2"/></g>
<g transform="translate(64,144) scale(1.3733333333333)"><circle cx="3" cy="3" r="3"/></g>
<g transform="translate(72,144) scale(1.3733333333333)"><circle cx="3" cy="3" r="2"/></g>
<g transform="translate(88,144) scale(1.3733333333333)"><circle cx="3" cy="3" r="2"/></g>
<g transform="translate(112,144) scale(1.3733333333333)"><circle cx="3" cy="3" r="2"/></g>
<g transform="translate(144,144) scale(1.3733333333333)"><circle cx="3" cy="3" r="2"/></g>
<g transform="translate(152,144) scale(1.3733333333333)"><circle cx="3" cy="3" r="2"/></g>
<g transform="translate(160,144) scale(1.3733333333333)"><circle cx="3" cy="3" r="2"/></g>
<g transform="translate(192,144) scale(1.3733333333333)"><circle cx="3" cy="3" r="3"/></g>
<g transform="translate(200,144) scale(1.3733333333333)"><circle cx="3" cy="3" r="2"/></g>
<g transform="translate(208,144) scale(1.3733333333333)"><circle cx="3" cy="3" r="2"/></g>
<g transform="translate(216,144) scale(1.3733333333333)"><circle cx="3" cy="3" r="2"/></g>
<g transform="translate(232,144) scale(1.3733333333333)"><circle cx="3" cy="3" r="3"/></g>
<g transform="translate(240,144) scale(1.3733333333333)"><circle cx="3" cy="3" r="2"/></g>
<g transform="translate(264,144) scale(1.3733333333333)"><circle cx="3" cy="3" r="2"/></g>
<g transform="translate(32,152) scale(1.3733333333333)"><circle cx="3" cy="3" r="3"/></g>
<g transform="translate(40,152) scale(1.3733333333333)"><circle cx="3" cy="3" r="2"/></g>
<g transform="translate(72,152) scale(1.3733333333333)"><circle cx="3" cy="3" r="2"/></g>
<g transform="translate(88,152) scale(1.3733333333333)"><circle cx="3" cy="3" r="2"/></g>
<g transform="translate(104,152) scale(1.3733333333333)"><circle cx="3" cy="3" r="3"/></g>
<g transform="translate(112,152) scale(1.3733333333333)"><circle cx="3" cy="3" r="2"/></g>
<g transform="translate(128,152) scale(1.3733333333333)"><circle cx="3" cy="3" r="2"/></g>
<g transform="translate(144,152) scale(1.3733333333333)"><circle cx="3" cy="3" r="2"/></g>
<g transform="translate(152,152) scale(1.3733333333333)"><circle cx="3" cy="3" r="2"/></g>
<g transform="translate(160,152) scale(1.3733333333333)"><circle cx="3" cy="3" r="2"/></g>
<g transform="translate(176,152) scale(1.3733333333333)"><circle cx="3" cy="3" r="2"/></g>
<g transform="translate(200,152) scale(1.3733333333333)"><circle cx="3" cy="3" r="3"/></g>
<g transform="translate(224,152) scale(1.3733333333333)"><circle cx="3" cy="3" r="2"/></g>
<g transform="translate(248,152) scale(1.3733333333333)"><circle cx="3" cy="3" r="2"/></g>
<g transform="translate(264,152) scale(1.3733333333333)"><circle cx="3" cy="3" r="2"/></g>
<g transform="translate(272,152) scale(1.3733333333333)"><circle cx="3" cy="3" r="3"/></g>
<g transform="translate(40,160) scale(1.3733333333333)"><circle cx="3" cy="3" r="3"/></g>
<g transform="translate(48,160) scale(1.3733333333333)"><circle cx="3" cy="3" r="3"/></g>
<g transform="translate(64,160) scale(1.3733333333333)"><circle cx="3" cy="3" r="3"/></g>
<g transform="translate(72,160) scale(1.3733333333333)"><circle cx="3" cy="3" r="2"/></g>
<g transform="translate(80,160) scale(1.3733333333333)"><circle cx="3" cy="3" r="2"/></g>
<g transform="translate(88,160) scale(1.3733333333333)"><circle cx="3" cy="3" r="2"/></g>
<g transform="translate(96,160) scale(1.3733333333333)"><circle cx="3" cy="3" r="3"/></g>
<g transform="translate(120,160) scale(1.3733333333333)"><circle cx="3" cy="3" r="2"/></g>
<g transform="translate(136,160) scale(1.3733333333333)"><circle cx="3" cy="3" r="2"/></g>
<g transform="translate(144,160) scale(1.3733333333333)"><circle cx="3" cy="3" r="2"/></g>
<g transform="translate(152,160) scale(1.3733333333333)"><circle cx="3" cy="3" r="2"/></g>
<g transform="translate(160,160) scale(1.3733333333333)"><circle cx="3" cy="3" r="2"/></g>
<g transform="translate(168,160) scale(1.3733333333333)"><circle cx="3" cy="3" r="2"/></g>
<g transform="translate(192,160) scale(1.3733333333333)"><circle cx="3" cy="3" r="2"/></g>
<g transform="translate(240,160) scale(1.3733333333333)"><circle cx="3" cy="3" r="3"/></g>
<g transform="translate(248,160) scale(1.3733333333333)"><circle cx="3" cy="3" r="2"/></g>
<g transform="translate(264,160) scale(1.3733333333333)"><circle cx="3" cy="3" r="3"/></g>
<g transform="translate(16,168) scale(1.3733333333333)"><circle cx="3" cy="3" r="2"/></g>
<g transform="translate(32,168) scale(1.3733333333333)"><circle cx="3" cy="3" r="2"/></g>
<g transform="translate(80,168) scale(1.3733333333333)"><circle cx="3" cy="3" r="3"/></g>
<g transform="translate(104,168) scale(1.3733333333333)"><circle cx="3" cy="3" r="3"/></g>
<g transform="translate(112,168) scale(1.3733333333333)"><circle cx="3" cy="3" r="2"/></g>
<g transform="translate(128,168) scale(1.3733333333333)"><circle cx="3" cy="3" r="3"/></g>
<g transform="translate(136,168) scale(1.3733333333333)"><circle cx="3" cy="3" r="2"/></g>
<g transform="translate(152,168) scale(1.3733333333333)"><circle cx="3" cy="3" r="3"/></g>
<g transform="translate(168,168) scale(1.3733333333333)"><circle cx="3" cy="3" r="2"/></g>
<g transform="translate(176,168) scale(1.3733333333333)"><circle cx="3" cy="3" r="2"/></g>
<g transform="translate(184,168) scale(1.3733333333333)"><circle cx="3" cy="3" r="2"/></g>
<g transform="translate(192,168) scale(1.3733333333333)"><circle cx="3" cy="3" r="2"/></g>
<g transform="translate(200,168) scale(1.3733333333333)"><circle cx="3" cy="3" r="2"/></g>
<g transform="translate(208,168) scale(1.3733333333333)"><circle cx="3" cy="3" r="2"/></g>
<g transform="translate(224,168) scale(1.3733333333333)"><circle cx="3" cy="3" r="2"/></g>
<g transform="translate(256,168) scale(1.3733333333333)"><circle cx="3" cy="3" r="2"/></g>
<g transform="translate(24,176) scale(1.3733333333333)"><circle cx="3" cy="3" r="3"/></g>
<g transform="translate(32,176) scale(1.3733333333333)"><circle cx="3" cy="3" r="2"/></g>
<g transform="translate(64,176) scale(1.3733333333333)"><circle cx="3" cy="3" r="2"/></g>
<g transform="translate(96,176) scale(1.3733333333333)"><circle cx="3" cy="3" r="2"/></g>
<g transform="translate(112,176) scale(1.3733333333333)"><circle cx="3" cy="3" r="2"/></g>
<g transform="translate(120,176) scale(1.3733333333333)"><circle cx="3" cy="3" r="2"/></g>
<g transform="translate(136,176) scale(1.3733333333333)"><circle cx="3" cy="3" r="3"/></g>
<g transform="translate(144,176) scale(1.3733333333333)"><circle cx="3" cy="3" r="2"/></g>
<g transform="translate(160,176) scale(1.3733333333333)"><circle cx="3" cy="3" r="3"/></g>
<g transform="translate(168,176) scale(1.3733333333333)"><circle cx="3" cy="3" r="2"/></g>
<g transform="translate(176,176) scale(1.3733333333333)"><circle cx="3" cy="3" r="2"/></g>
<g transform="translate(192,176) scale(1.3733333333333)"><circle cx="3" cy="3" r="3"/></g>
<g transform="translate(208,176) scale(1.3733333333333)"><circle cx="3" cy="3" r="3"/></g>
<g transform="translate(216,176) scale(1.3733333333333)"><circle cx="3" cy="3" r="2"/></g>
<g transform="translate(232,176) scale(1.3733333333333)"><circle cx="3" cy="3" r="3"/></g>
<g transform="translate(240,176) scale(1.3733333333333)"><circle cx="3" cy="3" r="3"/></g>
<g transform="translate(264,176) scale(1.3733333333333)"><circle cx="3" cy="3" r="2"/></g>
<g transform="translate(16,184) scale(1.3733333333333)"><circle cx="3" cy="3" r="2"/></g>
<g transform="translate(32,184) scale(1.3733333333333)"><circle cx="3" cy="3" r="3"/></g>
<g transform="translate(80,184) scale(1.3733333333333)"><circle cx="3" cy="3" r="2"/></g>
<g transform="translate(88,184) scale(1.3733333333333)"><circle cx="3" cy="3" r="2"/></g>
<g transform="translate(96,184) scale(1.3733333333333)"><circle cx="3" cy="3" r="2"/></g>
<g transform="translate(112,184) scale(1.3733333333333)"><circle cx="3" cy="3" r="3"/></g>
<g transform="translate(120,184) scale(1.3733333333333)"><circle cx="3" cy="3" r="2"/></g>
<g transform="translate(144,184) scale(1.3733333333333)"><circle cx="3" cy="3" r="2"/></g>
<g transform="translate(168,184) scale(1.3733333333333)"><circle cx="3" cy="3" r="2"/></g>
<g transform="translate(176,184) scale(1.3733333333333)"><circle cx="3" cy="3" r="2"/></g>
<g transform="translate(200,184) scale(1.3733333333333)"><circle cx="3" cy="3" r="2"/></g>
<g transform="translate(216,184) scale(1.3733333333333)"><circle cx="3" cy="3" r="2"/></g>
<g transform="translate(224,184) scale(1.3733333333333)"><circle cx="3" cy="3" r="3"/></g>
<g transform="translate(248,184) scale(1.3733333333333)"><circle cx="3" cy="3" r="2"/></g>
<g transform="translate(264,184) scale(1.3733333333333)"><circle cx="3" cy="3" r="2"/></g>
<g transform="translate(272,184) scale(1.3733333333333)"><circle cx="3" cy="3" r="3"/></g>
<g transform="translate(16,192) scale(1.3733333333333)"><circle cx="3" cy="3" r="2"/></g>
<g transform="translate(40,192) scale(1.3733333333333)"><circle cx="3" cy="3" r="3"/></g>
<g transform="translate(48,192) scale(1.3733333333333)"><circle cx="3" cy="3" r="2"/></g>
<g transform="translate(64,192) scale(1.3733333333333)"><circle cx="3" cy="3" r="3"/></g>
<g transform="translate(72,192) scale(1.3733333333333)"><circle cx="3" cy="3" r="2"/></g>
<g transform="translate(80,192) scale(1.3733333333333)"><circle cx="3" cy="3" r="2"/></g>
<g transform="translate(88,192) scale(1.3733333333333)"><circle cx="3" cy="3" r="2"/></g>
<g transform="translate(96,192) scale(1.3733333333333)"><circle cx="3" cy="3" r="2"/></g>
<g transform="translate(104,192) scale(1.3733333333333)"><circle cx="3" cy="3" r="2"/></g>
<g transform="translate(120,192) scale(1.3733333333333)"><circle cx="3" cy="3" r="2"/></g>
<g transform="translate(136,192) scale(1.3733333333333)"><circle cx="3" cy="3" r="3"/></g>
<g transform="translate(144,192) scale(1.3733333333333)"><circle cx="3" cy="3" r="2"/></g>
<g transform="translate(168,192) scale(1.3733333333333)"><circle cx="3" cy="3" r="2"/></g>
<g transform="translate(184,192) scale(1.3733333333333)"><circle cx="3" cy="3" r="2"/></g>
<g transform="translate(192,192) scale(1.3733333333333)"><circle cx="3" cy="3" r="2"/></g>
<g transform="translate(208,192) scale(1.3733333333333)"><circle cx="3" cy="3" r="2"/></g>
<g transform="translate(216,192) scale(1.3733333333333)"><circle cx="3" cy="3" r="2"/></g>
<g transform="translate(232,192) scale(1.3733333333333)"><circle cx="3" cy="3" r="3"/></g>
<g transform="translate(240,192) scale(1.3733333333333)"><circle cx="3" cy="3" r="2"/></g>
<g transform="translate(248,192) scale(1.3733333333333)"><circle cx="3" cy="3" r="2"/></g>
<g transform="translate(264,192) scale(1.3733333333333)"><circle cx="3" cy="3" r="3"/></g>
<g transform="translate(16,200) scale(1.3733333333333)"><circle cx="3" cy="3" r="2"/></g>
<g transform="translate(48,200) scale(1.3733333333333)"><circle cx="3" cy="3" r="2"/></g>
<g transform="translate(88,200) scale(1.3733333333333)"><circle cx="3" cy="3" r="2"/></g>
<g transform="translate(104,200) scale(1.3733333333333)"><circle cx="3" cy="3" r="3"/></g>
<g transform="translate(112,200) scale(1.3733333333333)"><circle cx="3" cy="3" r="2"/></g>
<g transform="translate(120,200) scale(1.3733333333333)"><circle cx="3" cy="3" r="2"/></g>
<g transform="translate(128,200) scale(1.3733333333333)"><circle cx="3" cy="3" r="3"/></g>
<g transform="translate(152,200) scale(1.3733333333333)"><circle cx="3" cy="3" r="2"/></g>
<g transform="translate(168,200) scale(1.3733333333333)"><circle cx="3" cy="3" r="2"/></g>
<g transform="translate(176,200) scale(1.3733333333333)"><circle cx="3" cy="3" r="2"/></g>
<g transform="translate(184,200) scale(1.3733333333333)"><circle cx="3" cy="3" r="2"/></g>
<g transform="translate(192,200) scale(1.3733333333333)"><circle cx="3" cy="3" r="2"/></g>
<g transform="translate(200,200) scale(1.3733333333333)"><circle cx="3" cy="3" r="2"/></g>
<g transform="translate(208,200) scale(1.3733333333333)"><circle cx="3" cy="3" r="2"/></g>
<g transform="translate(216,200) scale(1.3733333333333)"><circle cx="3" cy="3" r="2"/></g>
<g transform="translate(240,200) scale(1.3733333333333)"><circle cx="3" cy="3" r="2"/></g>
<g transform="translate(248,200) scale(1.3733333333333)"><circle cx="3" cy="3" r="2"/></g>
<g transform="translate(256,200) scale(1.3733333333333)"><circle cx="3" cy="3" r="3"/></g>
<g transform="translate(16,208) scale(1.3733333333333)"><circle cx="3" cy="3" r="3"/></g>
<g transform="translate(32,208) scale(1.3733333333333)"><circle cx="3" cy="3" r="3"/></g>
<g transform="translate(40,208) scale(1.3733333333333)"><circle cx="3" cy="3" r="2"/></g>
<g transform="translate(48,208) scale(1.3733333333333)"><circle cx="3" cy="3" r="2"/></g>
<g transform="translate(64,208) scale(1.3733333333333)"><circle cx="3" cy="3" r="3"/></g>
<g transform="translate(72,208) scale(1.3733333333333)"><circle cx="3" cy="3" r="2"/></g>
<g transform="translate(80,208) scale(1.3733333333333)"><circle cx="3" cy="3" r="2"/></g>
<g transform="translate(88,208) scale(1.3733333333333)"><circle cx="3" cy="3" r="2"/></g>
<g transform="translate(152,208) scale(1.3733333333333)"><circle cx="3" cy="3" r="3"/></g>
<g transform="translate(160,208) scale(1.3733333333333)"><circle cx="3" cy="3" r="2"/></g>
<g transform="translate(168,208) scale(1.3733333333333)"><circle cx="3" cy="3" r="2"/></g>
<g transform="translate(208,208) scale(1.3733333333333)"><circle cx="3" cy="3" r="2"/></g>
<g transform="translate(216,208) scale(1.3733333333333)"><circle cx="3" cy="3" r="2"/></g>
<g transform="translate(224,208) scale(1.3733333333333)"><circle cx="3" cy="3" r="2"/></g>
<g transform="translate(232,208) scale(1.3733333333333)"><circle cx="3" cy="3" r="2"/></g>
<g transform="translate(240,208) scale(1.3733333333333)"><circle cx="3" cy="3" r="2"/></g>
<g transform="translate(248,208) scale(1.3733333333333)"><circle cx="3" cy="3" r="2"/></g>
<g transform="translate(272,208) scale(1.3733333333333)"><circle cx="3" cy="3" r="2"/></g>
<g transform="translate(80,216) scale(1.3733333333333)"><circle cx="3" cy="3" r="2"/></g>
<g transform="translate(96,216) scale(1.3733333333333)"><circle cx="3" cy="3" r="2"/></g>
<g transform="translate(104,216) scale(1.3733333333333)"><circle cx="3" cy="3" r="3"/></g>
<g transform="translate(120,216) scale(1.3733333333333)"><circle cx="3" cy="3" r="2"/></g>
<g transform="translate(128,216) scale(1.3733333333333)"><circle cx="3" cy="3" r="2"/></g>
<g transform="translate(136,216) scale(1.3733333333333)"><circle cx="3" cy="3" r="2"/></g>
<g transform="translate(144,216) scale(1.3733333333333)"><circle cx="3" cy="3" r="2"/></g>
<g transform="translate(160,216) scale(1.3733333333333)"><circle cx="3" cy="3" r="2"/></g>
<g transform="translate(176,216) scale(1.3733333333333)"><circle cx="3" cy="3" r="3"/></g>
<g transform="translate(184,216) scale(1.3733333333333)"><circle cx="3" cy="3" r="2"/></g>
<g transform="translate(200,216) scale(1.3733333333333)"><circle cx="3" cy="3" r="2"/></g>
<g transform="translate(208,216) scale(1.3733333333333)"><circle cx="3" cy="3" r="2"/></g>
<g transform="translate(240,216) scale(1.3733333333333)"><circle cx="3" cy="3" r="2"/></g>
<g transform="translate(256,216) scale(1.3733333333333)"><circle cx="3" cy="3" r="2"/></g>
<g transform="translate(272,216) scale(1.3733333333333)"><circle cx="3" cy="3" r="3"/></g>
<g transform="translate(80,224) scale(1.3733333333333)"><circle cx="3" cy="3" r="3"/></g>
<g transform="translate(96,224) scale(1.3733333333333)"><circle cx="3" cy="3" r="3"/></g>
<g transform="translate(120,224) scale(1.3733333333333)"><circle cx="3" cy="3" r="2"/></g>
<g transform="translate(136,224) scale(1.3733333333333)"><circle cx="3" cy="3" r="3"/></g>
<g transform="translate(144,224) scale(1.3733333333333)"><circle cx="3" cy="3" r="2"/></g>
<g transform="translate(160,224) scale(1.3733333333333)"><circle cx="3" cy="3" r="2"/></g>
<g transform="translate(168,224) scale(1.3733333333333)"><circle cx="3" cy="3" r="2"/></g>
<g transform="translate(184,224) scale(1.3733333333333)"><circle cx="3" cy="3" r="3"/></g>
<g transform="translate(200,224) scale(1.3733333333333)"><circle cx="3" cy="3" r="2"/></g>
<g transform="translate(208,224) scale(1.3733333333333)"><circle cx="3" cy="3" r="2"/></g>
<g transform="translate(224,224) scale(1.3733333333333)"><circle cx="3" cy="3" r="2"/></g>
<g transform="translate(240,224) scale(1.3733333333333)"><circle cx="3" cy="3" r="2"/></g>
<g transform="translate(264,224) scale(1.3733333333333)"><circle cx="3" cy="3" r="2"/></g>
<g transform="translate(112,232) scale(1.3733333333333)"><circle cx="3" cy="3" r="2"/></g>
<g transform="translate(120,232) scale(1.3733333333333)"><circle cx="3" cy="3" r="2"/></g>
<g transform="translate(128,232) scale(1.3733333333333)"><circle cx="3" cy="3" r="3"/></g>
<g transform="translate(152,232) scale(1.3733333333333)"><circle cx="3" cy="3" r="2"/></g>
<g transform="translate(160,232) scale(1.3733333333333)"><circle cx="3" cy="3" r="2"/></g>
<g transform="translate(168,232) scale(1.3733333333333)"><circle cx="3" cy="3" r="2"/></g>
<g transform="translate(200,232) scale(1.3733333333333)"><circle cx="3" cy="3" r="3"/></g>
<g transform="translate(208,232) scale(1.3733333333333)"><circle cx="3" cy="3" r="2"/></g>
<g transform="translate(240,232) scale(1.3733333333333)"><circle cx="3" cy="3" r="2"/></g>
<g transform="translate(248,232) scale(1.3733333333333)"><circle cx="3" cy="3" r="2"/></g>
<g transform="translate(256,232) scale(1.3733333333333)"><circle cx="3" cy="3" r="2"/></g>
<g transform="translate(264,232) scale(1.3733333333333)"><circle cx="3" cy="3" r="2"/></g>
<g transform="translate(80,240) scale(1.3733333333333)"><circle cx="3" cy="3" r="2"/></g>
<g transform="translate(104,240) scale(1.3733333333333)"><circle cx="3" cy="3" r="2"/></g>
<g transform="translate(112,240) scale(1.3733333333333)"><circle cx="3" cy="3" r="2"/></g>
<g transform="translate(120,240) scale(1.3733333333333)"><circle cx="3" cy="3" r="2"/></g>
<g transform="translate(152,240) scale(1.3733333333333)"><circle cx="3" cy="3" r="3"/></g>
<g transform="translate(160,240) scale(1.3733333333333)"><circle cx="3" cy="3" r="2"/></g>
<g transform="translate(208,240) scale(1.3733333333333)"><circle cx="3" cy="3" r="2"/></g>
<g transform="translate(216,240) scale(1.3733333333333)"><circle cx="3" cy="3" r="2"/></g>
<g transform="translate(224,240) scale(1.3733333333333)"><circle cx="3" cy="3" r="2"/></g>
<g transform="translate(232,240) scale(1.3733333333333)"><circle cx="3" cy="3" r="2"/></g>
<g transform="translate(240,240) scale(1.3733333333333)"><circle cx="3" cy="3" r="2"/></g>
<g transform="translate(80,248) scale(1.3733333333333)"><circle cx="3" cy="3" r="2"/></g>
<g transform="translate(104,248) scale(1.3733333333333)"><circle cx="3" cy="3" r="3"/></g>
<g transform="translate(112,248) scale(1.3733333333333)"><circle cx="3" cy="3" r="2"/></g>
<g transform="translate(120,248) scale(1.3733333333333)"><circle cx="3" cy="3" r="2"/></g>
<g transform="translate(136,248) scale(1.3733333333333)"><circle cx="3" cy="3" r="2"/></g>
<g transform="translate(176,248) scale(1.3733333333333)"><circle cx="3" cy="3" r="2"/></g>
<g transform="translate(200,248) scale(1.3733333333333)"><circle cx="3" cy="3" r="2"/></g>
<g transform="translate(208,248) scale(1.3733333333333)"><circle cx="3" cy="3" r="2"/></g>
<g transform="translate(216,248) scale(1.3733333333333)"><circle cx="3" cy="3" r="2"/></g>
<g transform="translate(232,248) scale(1.3733333333333)"><circle cx="3" cy="3" r="2"/></g>
<g transform="translate(240,248) scale(1.3733333333333)"><circle cx="3" cy="3" r="2"/></g>
<g transform="translate(256,248) scale(1.3733333333333)"><circle cx="3" cy="3" r="2"/></g>
<g transform="translate(272,248) scale(1.3733333333333)"><circle cx="3" cy="3" r="2"/></g>
<g transform="translate(80,256) scale(1.3733333333333)"><circle cx="3" cy="3" r="2"/></g>
<g transform="translate(88,256) scale(1.3733333333333)"><circle cx="3" cy="3" r="2"/></g>
<g transform="translate(96,256) scale(1.3733333333333)"><circle cx="3" cy="3" r="2"/></g>
<g transform="translate(120,256) scale(1.3733333333333)"><circle cx="3" cy="3" r="3"/></g>
<g transform="translate(136,256) scale(1.3733333333333)"><circle cx="3" cy="3" r="3"/></g>
<g transform="translate(144,256) scale(1.3733333333333)"><circle cx="3" cy="3" r="2"/></g>
<g transform="translate(152,256) scale(1.3733333333333)"><circle cx="3" cy="3" r="2"/></g>
<g transform="translate(160,256) scale(1.3733333333333)"><circle cx="3" cy="3" r="2"/></g>
<g transform="translate(168,256) scale(1.3733333333333)"><circle cx="3" cy="3" r="3"/></g>
<g transform="translate(192,256) scale(1.3733333333333)"><circle cx="3" cy="3" r="2"/></g>
<g transform="translate(200,256) scale(1.3733333333333)"><circle cx="3" cy="3" r="2"/></g>
<g transform="translate(208,256) scale(1.3733333333333)"><circle cx="3" cy="3" r="2"/></g>
<g transform="translate(216,256) scale(1.3733333333333)"><circle cx="3" cy="3" r="2"/></g>
<g transform="translate(224,256) scale(1.3733333333333)"><circle cx="3" cy="3" r="2"/></g>
<g transform="translate(232,256) scale(1.3733333333333)"><circle cx="3" cy="3" r="2"/></g>
<g transform="translate(248,256) scale(1.3733333333333)"><circle cx="3" cy="3" r="2"/></g>
<g transform="translate(256,256) scale(1.3733333333333)"><circle cx="3" cy="3" r="2"/></g>
<g transform="translate(80,264) scale(1.3733333333333)"><circle cx="3" cy="3" r="2"/></g>
<g transform="translate(96,264) scale(1.3733333333333)"><circle cx="3" cy="3" r="2"/></g>
<g transform="translate(104,264) scale(1.3733333333333)"><circle cx="3" cy="3" r="2"/></g>
<g transform="translate(112,264) scale(1.3733333333333)"><circle cx="3" cy="3" r="2"/></g>
<g transform="translate(128,264) scale(1.3733333333333)"><circle cx="3" cy="3" r="2"/></g>
<g transform="translate(176,264) scale(1.3733333333333)"><circle cx="3" cy="3" r="2"/></g>
<g transform="translate(192,264) scale(1.3733333333333)"><circle cx="3" cy="3" r="3"/></g>
<g transform="translate(240,264) scale(1.3733333333333)"><circle cx="3" cy="3" r="3"/></g>
<g transform="translate(248,264) scale(1.3733333333333)"><circle cx="3" cy="3" r="2"/></g>
<g transform="translate(256,264) scale(1.3733333333333)"><circle cx="3" cy="3" r="2"/></g>
<g transform="translate(80,272) scale(1.3733333333333)"><circle cx="3" cy="3" r="3"/></g>
<g transform="translate(88,272) scale(1.3733333333333)"><circle cx="3" cy="3" r="2"/></g>
<g transform="translate(96,272) scale(1.3733333333333)"><circle cx="3" cy="3" r="2"/></g>
<g transform="translate(104,272) scale(1.3733333333333)"><circle cx="3" cy="3" r="2"/></g>
<g transform="translate(112,272) scale(1.3733333333333)"><circle cx="3" cy="3" r="2"/></g>
<g transform="translate(120,272) scale(1.3733333333333)"><circle cx="3" cy="3" r="2"/></g>
<g transform="translate(128,272) scale(1.3733333333333)"><circle cx="3" cy="3" r="2"/></g>
<g transform="translate(152,272) scale(1.3733333333333)"><circle cx="3" cy="3" r="2"/></g>
<g transform="translate(168,272) scale(1.3733333333333)"><circle cx="3" cy="3" r="3"/></g>
<g transform="translate(176,272) scale(1.3733333333333)"><circle cx="3" cy="3" r="2"/></g>
<g transform="translate(184,272) scale(1.3733333333333)"><circle cx="3" cy="3" r="3"/></g>
<g transform="translate(200,272) scale(1.3733333333333)"><circle cx="3" cy="3" r="3"/></g>
<g transform="translate(208,272) scale(1.3733333333333)"><circle cx="3" cy="3" r="2"/></g>
<g transform="translate(216,272) scale(1.3733333333333)"><circle cx="3" cy="3" r="2"/></g>
<g transform="translate(224,272) scale(1.3733333333333)"><circle cx="3" cy="3" r="3"/></g>
<g transform="translate(248,272) scale(1.3733333333333)"><circle cx="3" cy="3" r="3"/></g>
<g transform="translate(264,272) scale(1.3733333333333)"><circle cx="3" cy="3" r="2"/></g>
</g><g><g transform="translate(16,16)" fill="#98db3b"><g transform="scale(4)"><path d="M4.5,14h5.1C12,14,14,12,14,9.6V4.5C14,2,12,0,9.5,0H4.4C2,0,0,2,0,4.4v5.1C0,12,2,14,4.5,14z M12,4.8v4.4 c0,1.5-1.3,2.8-2.8,2.8H4.8C3.2,12,2,10.8,2,9.2V4.8C2,3.3,3.3,2,4.8,2h4.4C10.8,2,12,3.2,12,4.8z"/></g></g>
<g transform="translate(32,32)" fill="#98db3b"><g transform="scale(4)"><path d="M6,1.7v2.7C6,5.2,5.2,6,4.3,6H1.7C0.7,6,0,5.3,0,4.3V1.7C0,0.8,0.8,0,1.7,0h2.7C5.3,0,6,0.7,6,1.7z"/></g></g>
<g transform="translate(224,16)" fill="#98db3b"><g transform="scale(4)"><path d="M4.5,14h5.1C12,14,14,12,14,9.6V4.5C14,2,12,0,9.5,0H4.4C2,0,0,2,0,4.4v5.1C0,12,2,14,4.5,14z M12,4.8v4.4 c0,1.5-1.3,2.8-2.8,2.8H4.8C3.2,12,2,10.8,2,9.2V4.8C2,3.3,3.3,2,4.8,2h4.4C10.8,2,12,3.2,12,4.8z"/></g></g>
<g transform="translate(240,32)" fill="#98db3b"><g transform="scale(4)"><path d="M6,1.7v2.7C6,5.2,5.2,6,4.3,6H1.7C0.7,6,0,5.3,0,4.3V1.7C0,0.8,0.8,0,1.7,0h2.7C5.3,0,6,0.7,6,1.7z"/></g></g>
<g transform="translate(16,224)" fill="#98db3b"><g transform="scale(4)"><path d="M4.5,14h5.1C12,14,14,12,14,9.6V4.5C14,2,12,0,9.5,0H4.4C2,0,0,2,0,4.4v5.1C0,12,2,14,4.5,14z M12,4.8v4.4 c0,1.5-1.3,2.8-2.8,2.8H4.8C3.2,12,2,10.8,2,9.2V4.8C2,3.3,3.3,2,4.8,2h4.4C10.8,2,12,3.2,12,4.8z"/></g></g>
<g transform="translate(32,240)" fill="#98db3b"><g transform="scale(4)"><path d="M6,1.7v2.7C6,5.2,5.2,6,4.3,6H1.7C0.7,6,0,5.3,0,4.3V1.7C0,0.8,0.8,0,1.7,0h2.7C5.3,0,6,0.7,6,1.7z"/></g></g></g></svg>
