<?xml version="1.0" encoding="utf-8"?>
<svg xmlns="http://www.w3.org/2000/svg" xmlns:xlink="http://www.w3.org/1999/xlink" xml:space="preserve" width="264" height="264" viewBox="0 0 264 264"><rect width="264" height="264" fill="#15171a" x="0" y="0"/><g fill="#98db3b">
<g transform="translate(80,16) scale(1.3733333333333)"><circle cx="3" cy="3" r="2"/></g>
<g transform="translate(88,16) scale(1.3733333333333)"><circle cx="3" cy="3" r="2"/></g>
<g transform="translate(104,16) scale(1.3733333333333)"><circle cx="3" cy="3" r="3"/></g>
<g transform="translate(112,16) scale(1.3733333333333)"><circle cx="3" cy="3" r="3"/></g>
<g transform="translate(160,16) scale(1.3733333333333)"><circle cx="3" cy="3" r="2"/></g>
<g transform="translate(176,16) scale(1.3733333333333)"><circle cx="3" cy="3" r="2"/></g>
<g transform="translate(80,24) scale(1.3733333333333)"><circle cx="3" cy="3" r="2"/></g>
<g transform="translate(88,24) scale(1.3733333333333)"><circle cx="3" cy="3" r="2"/></g>
<g transform="translate(128,24) scale(1.3733333333333)"><circle cx="3" cy="3" r="2"/></g>
<g transform="translate(144,24) scale(1.3733333333333)"><circle cx="3" cy="3" r="2"/></g>
<g transform="translate(168,24) scale(1.3733333333333)"><circle cx="3" cy="3" r="2"/></g>
<g transform="translate(80,32) scale(1.3733333333333)"><circle cx="3" cy="3" r="3"/></g>
<g transform="translate(96,32) scale(1.3733333333333)"><circle cx="3" cy="3" r="2"/></g>
<g transform="translate(112,32) scale(1.3733333333333)"><circle cx="3" cy="3" r="2"/></g>
<g transform="translate(160,32) scale(1.3733333333333)"><circle cx="3" cy="3" r="2"/></g>
<g transform="translate(168,32) scale(1.3733333333333)"><circle cx="3" cy="3" r="2"/></g>
<g transform="translate(176,32) scale(1.3733333333333)"><circle cx="3" cy="3" r="2"/></g>
<g transform="translate(88,40) scale(1.3733333333333)"><circle cx="3" cy="3" r="2"/></g>
<g transform="translate(112,40) scale(1.3733333333333)"><circle cx="3" cy="3" r="2"/></g>
<g transform="translate(120,40) scale(1.3733333333333)"><circle cx="3" cy="3" r="2"/></g>
<g transform="translate(144,40) scale(1.3733333333333)"><circle cx="3" cy="3" r="2"/></g>
<g transform="translate(152,40) scale(1.3733333333333)"><circle cx="3" cy="3" r="2"/></g>
<g transform="translate(160,40) scale(1.3733333333333)"><circle cx="3" cy="3" r="2"/></g>
<g transform="translate(168,40) scale(1.3733333333333)"><circle cx="3" cy="3" r="2"/></g>
<g transform="translate(176,40) scale(1.3733333333333)"><circle cx="3" cy="3" r="2"/></g>
<g transform="translate(112,48) scale(1.3733333333333)"><circle cx="3" cy="3" r="2"/></g>
<g transform="translate(120,48) scale(1.3733333333333)"><circle cx="3" cy="3" r="2"/></g>
<g transform="translate(144,48) scale(1.3733333333333)"><circle cx="3" cy="3" r="3"/></g>
<g transform="translate(160,48) scale(1.3733333333333)"><circle cx="3" cy="3" r="2"/></g>
<g transform="translate(168,48) scale(1.3733333333333)"><circle cx="3" cy="3" r="2"/></g>
<g transform="translate(176,48) scale(1.3733333333333)"><circle cx="3" cy="3" r="2"/></g>
<g transform="translate(80,56) scale(1.3733333333333)"><circle cx="3" cy="3" r="2"/></g>
<g transform="translate(88,56) scale(1.3733333333333)"><circle cx="3" cy="3" r="3"/></g>
<g transform="translate(104,56) scale(1.3733333333333)"><circle cx="3" cy="3" r="3"/></g>
<g transform="translate(112,56) scale(1.3733333333333)"><circle cx="3" cy="3" r="2"/></g>
<g transform="translate(160,56) scale(1.3733333333333)"><circle cx="3" cy="3" r="2"/></g>
<g transform="translate(176,56) scale(1.3733333333333)"><circle cx="3" cy="3" r="2"/></g>
<g transform="translate(80,64) scale(1.3733333333333)"><circle cx="3" cy="3" r="2"/></g>
<g transform="translate(96,64) scale(1.3733333333333)"><circle cx="3" cy="3" r="2"/></g>
<g transform="translate(112,64) scale(1.3733333333333)"><circle cx="3" cy="3" r="3"/></g>
<g transform="translate(128,64) scale(1.3733333333333)"><circle cx="3" cy="3" r="2"/></g>
<g transform="translate(144,64) scale(1.3733333333333)"><circle cx="3" cy="3" r="2"/></g>
<g transform="translate(160,64) scale(1.3733333333333)"><circle cx="3" cy="3" r="3"/></g>
<g transform="translate(176,64) scale(1.3733333333333)"><circle cx="3" cy="3" r="3"/></g>
<g transform="translate(80,72) scale(1.3733333333333)"><circle cx="3" cy="3" r="2"/></g>
<g transform="translate(88,72) scale(1.3733333333333)"><circle cx="3" cy="3" r="2"/></g>
<g transform="translate(96,72) scale(1.3733333333333)"><circle cx="3" cy="3" r="2"/></g>
<g transform="translate(104,72) scale(1.3733333333333)"><circle cx="3" cy="3" r="3"/></g>
<g transform="translate(144,72) scale(1.3733333333333)"><circle cx="3" cy="3" r="3"/></g>
<g transform="translate(32,80) scale(1.3733333333333)"><circle cx="3" cy="3" r="3"/></g>
<g transform="translate(40,80) scale(1.3733333333333)"><circle cx="3" cy="3" r="2"/></g>
<g transform="translate(48,80) scale(1.3733333333333)"><circle cx="3" cy="3" r="2"/></g>
<g transform="translate(64,80) scale(1.3733333333333)"><circle cx="3" cy="3" r="2"/></g>
<g transform="translate(80,80) scale(1.3733333333333)"><circle cx="3" cy="3" r="3"/></g>
<g transform="translate(96,80) scale(1.3733333333333)"><circle cx="3" cy="3" r="3"/></g>
<g transform="translate(120,80) scale(1.3733333333333)"><circle cx="3" cy="3" r="2"/></g>
<g transform="translate(160,80) scale(1.3733333333333)"><circle cx="3" cy="3" r="3"/></g>
<g transform="translate(168,80) scale(1.3733333333333)"><circle cx="3" cy="3" r="3"/></g>
<g transform="translate(184,80) scale(1.3733333333333)"><circle cx="3" cy="3" r="3"/></g>
<g transform="translate(192,80) scale(1.3733333333333)"><circle cx="3" cy="3" r="2"/></g>
<g transform="translate(200,80) scale(1.3733333333333)"><circle cx="3" cy="3" r="3"/></g>
<g transform="translate(224,80) scale(1.3733333333333)"><circle cx="3" cy="3" r="2"/></g>
<g transform="translate(232,80) scale(1.3733333333333)"><circle cx="3" cy="3" r="2"/></g>
<g transform="translate(240,80) scale(1.3733333333333)"><circle cx="3" cy="3" r="2"/></g>
<g transform="translate(16,88) scale(1.3733333333333)"><circle cx="3" cy="3" r="3"/></g>
<g transform="translate(24,88) scale(1.3733333333333)"><circle cx="3" cy="3" r="3"/></g>
<g transform="translate(40,88) scale(1.3733333333333)"><circle cx="3" cy="3" r="3"/></g>
<g transform="translate(48,88) scale(1.3733333333333)"><circle cx="3" cy="3" r="2"/></g>
<g transform="translate(104,88) scale(1.3733333333333)"><circle cx="3" cy="3" r="2"/></g>
<g transform="translate(144,88) scale(1.3733333333333)"><circle cx="3" cy="3" r="2"/></g>
<g transform="translate(224,88) scale(1.3733333333333)"><circle cx="3" cy="3" r="3"/></g>
<g transform="translate(240,88) scale(1.3733333333333)"><circle cx="3" cy="3" r="3"/></g>
<g transform="translate(64,96) scale(1.3733333333333)"><circle cx="3" cy="3" r="2"/></g>
<g transform="translate(80,96) scale(1.3733333333333)"><circle cx="3" cy="3" r="2"/></g>
<g transform="translate(96,96) scale(1.3733333333333)"><circle cx="3" cy="3" r="2"/></g>
<g transform="translate(112,96) scale(1.3733333333333)"><circle cx="3" cy="3" r="2"/></g>
<g transform="translate(136,96) scale(1.3733333333333)"><circle cx="3" cy="3" r="2"/></g>
<g transform="translate(152,96) scale(1.3733333333333)"><circle cx="3" cy="3" r="3"/></g>
<g transform="translate(160,96) scale(1.3733333333333)"><circle cx="3" cy="3" r="2"/></g>
<g transform="translate(184,96) scale(1.3733333333333)"><circle cx="3" cy="3" r="2"/></g>
<g transform="translate(192,96) scale(1.3733333333333)"><circle cx="3" cy="3" r="2"/></g>
<g transform="translate(208,96) scale(1.3733333333333)"><circle cx="3" cy="3" r="3"/></g>
<g transform="translate(216,96) scale(1.3733333333333)"><circle cx="3" cy="3" r="3"/></g>
<g transform="translate(32,104) scale(1.3733333333333)"><circle cx="3" cy="3" r="3"/></g>
<g transform="translate(40,104) scale(1.3733333333333)"><circle cx="3" cy="3" r="3"/></g>
<g transform="translate(56,104) scale(1.3733333333333)"><circle cx="3" cy="3" r="2"/></g>
<g transform="translate(72,104) scale(1.3733333333333)"><circle cx="3" cy="3" r="2"/></g>
<g transform="translate(96,104) scale(1.3733333333333)"><circle cx="3" cy="3" r="2"/></g>
<g transform="translate(104,104) scale(1.3733333333333)"><circle cx="3" cy="3" r="2"/></g>
<g transform="translate(112,104) scale(1.3733333333333)"><circle cx="3" cy="3" r="2"/></g>
<g transform="translate(128,104) scale(1.3733333333333)"><circle cx="3" cy="3" r="3"/></g>
<g transform="translate(136,104) scale(1.3733333333333)"><circle cx="3" cy="3" r="2"/></g>
<g transform="translate(144,104) scale(1.3733333333333)"><circle cx="3" cy="3" r="3"/></g>
<g transform="translate(160,104) scale(1.3733333333333)"><circle cx="3" cy="3" r="3"/></g>
<g transform="translate(184,104) scale(1.3733333333333)"><circle cx="3" cy="3" r="2"/></g>
<g transform="translate(192,104) scale(1.3733333333333)"><circle cx="3" cy="3" r="2"/></g>
<g transform="translate(200,104) scale(1.3733333333333)"><circle cx="3" cy="3" r="2"/></g>
<g transform="translate(232,104) scale(1.3733333333333)"><circle cx="3" cy="3" r="2"/></g>
<g transform="translate(16,112) scale(1.3733333333333)"><circle cx="3" cy="3" r="2"/></g>
<g transform="translate(48,112) scale(1.3733333333333)"><circle cx="3" cy="3" r="2"/></g>
<g transform="translate(56,112) scale(1.3733333333333)"><circle cx="3" cy="3" r="2"/></g>
<g transform="translate(64,112) scale(1.3733333333333)"><circle cx="3" cy="3" r="3"/></g>
<g transform="translate(80,112) scale(1.3733333333333)"><circle cx="3" cy="3" r="2"/></g>
<g transform="translate(88,112) scale(1.3733333333333)"><circle cx="3" cy="3" r="2"/></g>
<g transform="translate(96,112) scale(1.3733333333333)"><circle cx="3" cy="3" r="2"/></g>
<g transform="translate(112,112) scale(1.3733333333333)"><circle cx="3" cy="3" r="3"/></g>
<g transform="translate(184,112) scale(1.3733333333333)"><circle cx="3" cy="3" r="2"/></g>
<g transform="translate(200,112) scale(1.3733333333333)"><circle cx="3" cy="3" r="3"/></g>
<g transform="translate(224,112) scale(1.3733333333333)"><circle cx="3" cy="3" r="3"/></g>
<g transform="translate(232,112) scale(1.3733333333333)"><circle cx="3" cy="3" r="2"/></g>
<g transform="translate(240,112) scale(1.3733333333333)"><circle cx="3" cy="3" r="2"/></g>
<g transform="translate(24,120) scale(1.3733333333333)"><circle cx="3" cy="3" r="2"/></g>
<g transform="translate(40,120) scale(1.3733333333333)"><circle cx="3" cy="3" r="3"/></g>
<g transform="translate(48,120) scale(1.3733333333333)"><circle cx="3" cy="3" r="2"/></g>
<g transform="translate(80,120) scale(1.3733333333333)"><circle cx="3" cy="3" r="2"/></g>
<g transform="translate(88,120) scale(1.3733333333333)"><circle cx="3" cy="3" r="2"/></g>
<g transform="translate(96,120) scale(1.3733333333333)"><circle cx="3" cy="3" r="2"/></g>
<g transform="translate(104,120) scale(1.3733333333333)"><circle cx="3" cy="3" r="2"/></g>
<g transform="translate(128,120) scale(1.3733333333333)"><circle cx="3" cy="3" r="2"/></g>
<g transform="translate(136,120) scale(1.3733333333333)"><circle cx="3" cy="3" r="2"/></g>
<g transform="translate(144,120) scale(1.3733333333333)"><circle cx="3" cy="3" r="2"/></g>
<g transform="translate(152,120) scale(1.3733333333333)"><circle cx="3" cy="3" r="3"/></g>
<g transform="translate(168,120) scale(1.3733333333333)"><circle cx="3" cy="3" r="3"/></g>
<g transform="translate(176,120) scale(1.3733333333333)"><circle cx="3" cy="3" r="2"/></g>
<g transform="translate(184,120) scale(1.3733333333333)"><circle cx="3" cy="3" r="2"/></g>
<g transform="translate(192,120) scale(1.3733333333333)"><circle cx="3" cy="3" r="2"/></g>
<g transform="translate(208,120) scale(1.3733333333333)"><circle cx="3" cy="3" r="3"/></g>
<g transform="translate(216,120) scale(1.3733333333333)"><circle cx="3" cy="3" r="3"/></g>
<g transform="translate(240,120) scale(1.3733333333333)"><circle cx="3" cy="3" r="3"/></g>
<g transform="translate(48,128) scale(1.3733333333333)"><circle cx="3" cy="3" r="2"/></g>
<g transform="translate(56,128) scale(1.3733333333333)"><circle cx="3" cy="3" r="2"/></g>
<g transform="translate(64,128) scale(1.3733333333333)"><circle cx="3" cy="3" r="3"/></g>
<g transform="translate(80,128) scale(1.3733333333333)"><circle cx="3" cy="3" r="3"/></g>
<g transform="translate(88,128) scale(1.3733333333333)"><circle cx="3" cy="3" r="2"/></g>
<g transform="translate(96,128) scale(1.3733333333333)"><circle cx="3" cy="3" r="2"/></g>
<g transform="translate(104,128) scale(1.3733333333333)"><circle cx="3" cy="3" r="2"/></g>
<g transform="translate(120,128) scale(1.3733333333333)"><circle cx="3" cy="3" r="2"/></g>
<g transform="translate(128,128) scale(1.3733333333333)"><circle cx="3" cy="3" r="2"/></g>
<g transform="translate(136,128) scale(1.3733333333333)"><circle cx="3" cy="3" r="2"/></g>
<g transform="translate(144,128) scale(1.3733333333333)"><circle cx="3" cy="3" r="2"/></g>
<g transform="translate(160,128) scale(1.3733333333333)"><circle cx="3" cy="3" r="2"/></g>
<g transform="translate(184,128) scale(1.3733333333333)"><circle cx="3" cy="3" r="2"/></g>
<g transform="translate(192,128) scale(1.3733333333333)"><circle cx="3" cy="3" r="2"/></g>
<g transform="translate(200,128) scale(1.3733333333333)"><circle cx="3" cy="3" r="3"/></g>
<g transform="translate(48,136) scale(1.3733333333333)"><circle cx="3" cy="3" r="3"/></g>
<g transform="translate(72,136) scale(1.3733333333333)"><circle cx="3" cy="3" r="2"/></g>
<g transform="translate(88,136) scale(1.3733333333333)"><circle cx="3" cy="3" r="3"/></g>
<g transform="translate(104,136) scale(1.3733333333333)"><circle cx="3" cy="3" r="3"/></g>
<g transform="translate(112,136) scale(1.3733333333333)"><circle cx="3" cy="3" r="2"/></g>
<g transform="translate(120,136) scale(1.3733333333333)"><circle cx="3" cy="3" r="2"/></g>
<g transform="translate(136,136) scale(1.3733333333333)"><circle cx="3" cy="3" r="2"/></g>
<g transform="translate(144,136) scale(1.3733333333333)"><circle cx="3" cy="3" r="2"/></g>
<g transform="translate(168,136) scale(1.3733333333333)"><circle cx="3" cy="3" r="2"/></g>
<g transform="translate(184,136) scale(1.3733333333333)"><circle cx="3" cy="3" r="3"/></g>
<g transform="translate(208,136) scale(1.3733333333333)"><circle cx="3" cy="3" r="2"/></g>
<g transform="translate(216,136) scale(1.3733333333333)"><circle cx="3" cy="3" r="2"/></g>
<g transform="translate(232,136) scale(1.3733333333333)"><circle cx="3" cy="3" r="2"/></g>
<g transform="translate(16,144) scale(1.3733333333333)"><circle cx="3" cy="3" r="2"/></g>
<g transform="translate(24,144) scale(1.3733333333333)"><circle cx="3" cy="3" r="2"/></g>
<g transform="translate(32,144) scale(1.3733333333333)"><circle cx="3" cy="3" r="3"/></g>
<g transform="translate(56,144) scale(1.3733333333333)"><circle cx="3" cy="3" r="3"/></g>
<g transform="translate(64,144) scale(1.3733333333333)"><circle cx="3" cy="3" r="2"/></g>
<g transform="translate(72,144) scale(1.3733333333333)"><circle cx="3" cy="3" r="2"/></g>
<g transform="translate(136,144) scale(1.3733333333333)"><circle cx="3" cy="3" r="2"/></g>
<g transform="translate(192,144) scale(1.3733333333333)"><circle cx="3" cy="3" r="2"/></g>
<g transform="translate(208,144) scale(1.3733333333333)"><circle cx="3" cy="3" r="2"/></g>
<g transform="translate(216,144) scale(1.3733333333333)"><circle cx="3" cy="3" r="2"/></g>
<g transform="translate(224,144) scale(1.3733333333333)"><circle cx="3" cy="3" r="3"/></g>
<g transform="translate(240,144) scale(1.3733333333333)"><circle cx="3" cy="3" r="2"/></g>
<g transform="translate(16,152) scale(1.3733333333333)"><circle cx="3" cy="3" r="2"/></g>
<g transform="translate(48,152) scale(1.3733333333333)"><circle cx="3" cy="3" r="2"/></g>
<g transform="translate(88,152) scale(1.3733333333333)"><circle cx="3" cy="3" r="2"/></g>
<g transform="translate(104,152) scale(1.3733333333333)"><circle cx="3" cy="3" r="2"/></g>
<g transform="translate(136,152) scale(1.3733333333333)"><circle cx="3" cy="3" r="2"/></g>
<g transform="translate(152,152) scale(1.3733333333333)"><circle cx="3" cy="3" r="2"/></g>
<g transform="translate(160,152) scale(1.3733333333333)"><circle cx="3" cy="3" r="2"/></g>
<g transform="translate(208,152) scale(1.3733333333333)"><circle cx="3" cy="3" r="3"/></g>
<g transform="translate(232,152) scale(1.3733333333333)"><circle cx="3" cy="3" r="3"/></g>
<g transform="translate(240,152) scale(1.3733333333333)"><circle cx="3" cy="3" r="2"/></g>
<g transform="translate(16,160) scale(1.3733333333333)"><circle cx="3" cy="3" r="2"/></g>
<g transform="translate(48,160) scale(1.3733333333333)"><circle cx="3" cy="3" r="2"/></g>
<g transform="translate(56,160) scale(1.3733333333333)"><circle cx="3" cy="3" r="2"/></g>
<g transform="translate(64,160) scale(1.3733333333333)"><circle cx="3" cy="3" r="2"/></g>
<g transform="translate(72,160) scale(1.3733333333333)"><circle cx="3" cy="3" r="2"/></g>
<g transform="translate(104,160) scale(1.3733333333333)"><circle cx="3" cy="3" r="2"/></g>
<g transform="translate(112,160) scale(1.3733333333333)"><circle cx="3" cy="3" r="2"/></g>
<g transform="translate(120,160) scale(1.3733333333333)"><circle cx="3" cy="3" r="3"/></g>
<g transform="translate(136,160) scale(1.3733333333333)"><circle cx="3" cy="3" r="3"/></g>
<g transform="translate(144,160) scale(1.3733333333333)"><circle cx="3" cy="3" r="2"/></g>
<g transform="translate(152,160) scale(1.3733333333333)"><circle cx="3" cy="3" r="2"/></g>
<g transform="translate(160,160) scale(1.3733333333333)"><circle cx="3" cy="3" r="2"/></g>
<g transform="translate(192,160) scale(1.3733333333333)"><circle cx="3" cy="3" r="2"/></g>
<g transform="translate(16,168) scale(1.3733333333333)"><circle cx="3" cy="3" r="2"/></g>
<g transform="translate(32,168) scale(1.3733333333333)"><circle cx="3" cy="3" r="2"/></g>
<g transform="translate(40,168) scale(1.3733333333333)"><circle cx="3" cy="3" r="2"/></g>
<g transform="translate(48,168) scale(1.3733333333333)"><circle cx="3" cy="3" r="2"/></g>
<g transform="translate(56,168) scale(1.3733333333333)"><circle cx="3" cy="3" r="2"/></g>
<g transform="translate(72,168) scale(1.3733333333333)"><circle cx="3" cy="3" r="2"/></g>
<g transform="translate(80,168) scale(1.3733333333333)"><circle cx="3" cy="3" r="2"/></g>
<g transform="translate(88,168) scale(1.3733333333333)"><circle cx="3" cy="3" r="2"/></g>
<g transform="translate(104,168) scale(1.3733333333333)"><circle cx="3" cy="3" r="2"/></g>
<g transform="translate(112,168) scale(1.3733333333333)"><circle cx="3" cy="3" r="2"/></g>
<g transform="translate(152,168) scale(1.3733333333333)"><circle cx="3" cy="3" r="3"/></g>
<g transform="translate(168,168) scale(1.3733333333333)"><circle cx="3" cy="3" r="3"/></g>
<g transform="translate(176,168) scale(1.3733333333333)"><circle cx="3" cy="3" r="2"/></g>
<g transform="translate(192,168) scale(1.3733333333333)"><circle cx="3" cy="3" r="2"/></g>
<g transform="translate(208,168) scale(1.3733333333333)"><circle cx="3" cy="3" r="2"/></g>
<g transform="translate(216,168) scale(1.3733333333333)"><circle cx="3" cy="3" r="3"/></g>
<g transform="translate(232,168) scale(1.3733333333333)"><circle cx="3" cy="3" r="3"/></g>
<g transform="translate(240,168) scale(1.3733333333333)"><circle cx="3" cy="3" r="2"/></g>
<g transform="translate(16,176) scale(1.3733333333333)"><circle cx="3" cy="3" r="3"/></g>
<g transform="translate(32,176) scale(1.3733333333333)"><circle cx="3" cy="3" r="3"/></g>
<g transform="translate(64,176) scale(1.3733333333333)"><circle cx="3" cy="3" r="3"/></g>
<g transform="translate(72,176) scale(1.3733333333333)"><circle cx="3" cy="3" r="2"/></g>
<g transform="translate(80,176) scale(1.3733333333333)"><circle cx="3" cy="3" r="2"/></g>
<g transform="translate(88,176) scale(1.3733333333333)"><circle cx="3" cy="3" r="2"/></g>
<g transform="translate(104,176) scale(1.3733333333333)"><circle cx="3" cy="3" r="3"/></g>
<g transform="translate(112,176) scale(1.3733333333333)"><circle cx="3" cy="3" r="2"/></g>
<g transform="translate(120,176) scale(1.3733333333333)"><circle cx="3" cy="3" r="2"/></g>
<g transform="translate(128,176) scale(1.3733333333333)"><circle cx="3" cy="3" r="3"/></g>
<g transform="translate(144,176) scale(1.3733333333333)"><circle cx="3" cy="3" r="2"/></g>
<g transform="translate(160,176) scale(1.3733333333333)"><circle cx="3" cy="3" r="2"/></g>
<g transform="translate(176,176) scale(1.3733333333333)"><circle cx="3" cy="3" r="2"/></g>
<g transform="translate(184,176) scale(1.3733333333333)"><circle cx="3" cy="3" r="2"/></g>
<g transform="translate(192,176) scale(1.3733333333333)"><circle cx="3" cy="3" r="2"/></g>
<g transform="translate(200,176) scale(1.3733333333333)"><circle cx="3" cy="3" r="2"/></g>
<g transform="translate(208,176) scale(1.3733333333333)"><circle cx="3" cy="3" r="2"/></g>
<g transform="translate(240,176) scale(1.3733333333333)"><circle cx="3" cy="3" r="2"/></g>
<g transform="translate(80,184) scale(1.3733333333333)"><circle cx="3" cy="3" r="3"/></g>
<g transform="translate(88,184) scale(1.3733333333333)"><circle cx="3" cy="3" r="2"/></g>
<g transform="translate(96,184) scale(1.3733333333333)"><circle cx="3" cy="3" r="3"/></g>
<g transform="translate(112,184) scale(1.3733333333333)"><circle cx="3" cy="3" r="3"/></g>
<g transform="translate(120,184) scale(1.3733333333333)"><circle cx="3" cy="3" r="2"/></g>
<g transform="translate(136,184) scale(1.3733333333333)"><circle cx="3" cy="3" r="3"/></g>
<g transform="translate(144,184) scale(1.3733333333333)"><circle cx="3" cy="3" r="2"/></g>
<g transform="translate(152,184) scale(1.3733333333333)"><circle cx="3" cy="3" r="3"/></g>
<g transform="translate(176,184) scale(1.3733333333333)"><circle cx="3" cy="3" r="2"/></g>
<g transform="translate(208,184) scale(1.3733333333333)"><circle cx="3" cy="3" r="2"/></g>
<g transform="translate(216,184) scale(1.3733333333333)"><circle cx="3" cy="3" r="3"/></g>
<g transform="translate(232,184) scale(1.3733333333333)"><circle cx="3" cy="3" r="3"/></g>
<g transform="translate(240,184) scale(1.3733333333333)"><circle cx="3" cy="3" r="2"/></g>
<g transform="translate(104,192) scale(1.3733333333333)"><circle cx="3" cy="3" r="2"/></g>
<g transform="translate(144,192) scale(1.3733333333333)"><circle cx="3" cy="3" r="3"/></g>
<g transform="translate(168,192) scale(1.3733333333333)"><circle cx="3" cy="3" r="2"/></g>
<g transform="translate(176,192) scale(1.3733333333333)"><circle cx="3" cy="3" r="2"/></g>
<g transform="translate(192,192) scale(1.3733333333333)"><circle cx="3" cy="3" r="2"/></g>
<g transform="translate(208,192) scale(1.3733333333333)"><circle cx="3" cy="3" r="2"/></g>
<g transform="translate(88,200) scale(1.3733333333333)"><circle cx="3" cy="3" r="3"/></g>
<g transform="translate(96,200) scale(1.3733333333333)"><circle cx="3" cy="3" r="2"/></g>
<g transform="translate(120,200) scale(1.3733333333333)"><circle cx="3" cy="3" r="3"/></g>
<g transform="translate(128,200) scale(1.3733333333333)"><circle cx="3" cy="3" r="2"/></g>
<g transform="translate(136,200) scale(1.3733333333333)"><circle cx="3" cy="3" r="3"/></g>
<g transform="translate(160,200) scale(1.3733333333333)"><circle cx="3" cy="3" r="2"/></g>
<g transform="translate(168,200) scale(1.3733333333333)"><circle cx="3" cy="3" r="2"/></g>
<g transform="translate(176,200) scale(1.3733333333333)"><circle cx="3" cy="3" r="2"/></g>
<g transform="translate(208,200) scale(1.3733333333333)"><circle cx="3" cy="3" r="2"/></g>
<g transform="translate(216,200) scale(1.3733333333333)"><circle cx="3" cy="3" r="2"/></g>
<g transform="translate(232,200) scale(1.3733333333333)"><circle cx="3" cy="3" r="3"/></g>
<g transform="translate(240,200) scale(1.3733333333333)"><circle cx="3" cy="3" r="2"/></g>
<g transform="translate(80,208) scale(1.3733333333333)"><circle cx="3" cy="3" r="2"/></g>
<g transform="translate(96,208) scale(1.3733333333333)"><circle cx="3" cy="3" r="2"/></g>
<g transform="translate(104,208) scale(1.3733333333333)"><circle cx="3" cy="3" r="3"/></g>
<g transform="translate(128,208) scale(1.3733333333333)"><circle cx="3" cy="3" r="3"/></g>
<g transform="translate(152,208) scale(1.3733333333333)"><circle cx="3" cy="3" r="3"/></g>
<g transform="translate(160,208) scale(1.3733333333333)"><circle cx="3" cy="3" r="2"/></g>
<g transform="translate(176,208) scale(1.3733333333333)"><circle cx="3" cy="3" r="2"/></g>
<g transform="translate(184,208) scale(1.3733333333333)"><circle cx="3" cy="3" r="2"/></g>
<g transform="translate(192,208) scale(1.3733333333333)"><circle cx="3" cy="3" r="2"/></g>
<g transform="translate(200,208) scale(1.3733333333333)"><circle cx="3" cy="3" r="2"/></g>
<g transform="translate(208,208) scale(1.3733333333333)"><circle cx="3" cy="3" r="2"/></g>
<g transform="translate(216,208) scale(1.3733333333333)"><circle cx="3" cy="3" r="2"/></g>
<g transform="translate(224,208) scale(1.3733333333333)"><circle cx="3" cy="3" r="3"/></g>
<g transform="translate(240,208) scale(1.3733333333333)"><circle cx="3" cy="3" r="3"/></g>
<g transform="translate(80,216) scale(1.3733333333333)"><circle cx="3" cy="3" r="2"/></g>
<g transform="translate(96,216) scale(1.3733333333333)"><circle cx="3" cy="3" r="3"/></g>
<g transform="translate(136,216) scale(1.3733333333333)"><circle cx="3" cy="3" r="3"/></g>
<g transform="translate(144,216) scale(1.3733333333333)"><circle cx="3" cy="3" r="3"/></g>
<g transform="translate(160,216) scale(1.3733333333333)"><circle cx="3" cy="3" r="3"/></g>
<g transform="translate(168,216) scale(1.3733333333333)"><circle cx="3" cy="3" r="2"/></g>
<g transform="translate(176,216) scale(1.3733333333333)"><circle cx="3" cy="3" r="2"/></g>
<g transform="translate(184,216) scale(1.3733333333333)"><circle cx="3" cy="3" r="2"/></g>
<g transform="translate(200,216) scale(1.3733333333333)"><circle cx="3" cy="3" r="2"/></g>
<g transform="translate(216,216) scale(1.3733333333333)"><circle cx="3" cy="3" r="2"/></g>
<g transform="translate(232,216) scale(1.3733333333333)"><circle cx="3" cy="3" r="2"/></g>
<g transform="translate(80,224) scale(1.3733333333333)"><circle cx="3" cy="3" r="3"/></g>
<g transform="translate(88,224) scale(1.3733333333333)"><circle cx="3" cy="3" r="3"/></g>
<g transform="translate(152,224) scale(1.3733333333333)"><circle cx="3" cy="3" r="2"/></g>
<g transform="translate(168,224) scale(1.3733333333333)"><circle cx="3" cy="3" r="2"/></g>
<g transform="translate(176,224) scale(1.3733333333333)"><circle cx="3" cy="3" r="2"/></g>
<g transform="translate(184,224) scale(1.3733333333333)"><circle cx="3" cy="3" r="2"/></g>
<g transform="translate(192,224) scale(1.3733333333333)"><circle cx="3" cy="3" r="2"/></g>
<g transform="translate(200,224) scale(1.3733333333333)"><circle cx="3" cy="3" r="2"/></g>
<g transform="translate(208,224) scale(1.3733333333333)"><circle cx="3" cy="3" r="2"/></g>
<g transform="translate(216,224) scale(1.3733333333333)"><circle cx="3" cy="3" r="2"/></g>
<g transform="translate(224,224) scale(1.3733333333333)"><circle cx="3" cy="3" r="2"/></g>
<g transform="translate(232,224) scale(1.3733333333333)"><circle cx="3" cy="3" r="2"/></g>
<g transform="translate(104,232) scale(1.3733333333333)"><circle cx="3" cy="3" r="2"/></g>
<g transform="translate(112,232) scale(1.3733333333333)"><circle cx="3" cy="3" r="2"/></g>
<g transform="translate(128,232) scale(1.3733333333333)"><circle cx="3" cy="3" r="3"/></g>
<g transform="translate(136,232) scale(1.3733333333333)"><circle cx="3" cy="3" r="2"/></g>
<g transform="translate(152,232) scale(1.3733333333333)"><circle cx="3" cy="3" r="2"/></g>
<g transform="translate(168,232) scale(1.3733333333333)"><circle cx="3" cy="3" r="2"/></g>
<g transform="translate(176,232) scale(1.3733333333333)"><circle cx="3" cy="3" r="2"/></g>
<g transform="translate(184,232) scale(1.3733333333333)"><circle cx="3" cy="3" r="2"/></g>
<g transform="translate(208,232) scale(1.3733333333333)"><circle cx="3" cy="3" r="2"/></g>
<g transform="translate(224,232) scale(1.3733333333333)"><circle cx="3" cy="3" r="3"/></g>
<g transform="translate(232,232) scale(1.3733333333333)"><circle cx="3" cy="3" r="2"/></g>
<g transform="translate(88,240) scale(1.3733333333333)"><circle cx="3" cy="3" r="2"/></g>
<g transform="translate(104,240) scale(1.3733333333333)"><circle cx="3" cy="3" r="3"/></g>
<g transform="translate(112,240) scale(1.3733333333333)"><circle cx="3" cy="3" r="2"/></g>
<g transform="translate(136,240) scale(1.3733333333333)"><circle cx="3" cy="3" r="3"/></g>
<g transform="translate(152,240) scale(1.3733333333333)"><circle cx="3" cy="3" r="3"/></g>
<g transform="translate(168,240) scale(1.3733333333333)"><circle cx="3" cy="3" r="3"/></g>
<g transform="translate(184,240) scale(1.3733333333333)"><circle cx="3" cy="3" r="3"/></g>
<g transform="translate(208,240) scale(1.3733333333333)"><circle cx="3" cy="3" r="3"/></g>
<g transform="translate(216,240) scale(1.3733333333333)"><circle cx="3" cy="3" r="3"/></g>
</g><g><g transform="translate(16,16)" fill="#98db3b"><g transform="scale(4)"><path d="M4.5,14h5.1C12,14,14,12,14,9.6V4.5C14,2,12,0,9.5,0H4.4C2,0,0,2,0,4.4v5.1C0,12,2,14,4.5,14z M12,4.8v4.4 c0,1.5-1.3,2.8-2.8,2.8H4.8C3.2,12,2,10.8,2,9.2V4.8C2,3.3,3.3,2,4.8,2h4.4C10.8,2,12,3.2,12,4.8z"/></g></g>
<g transform="translate(32,32)" fill="#98db3b"><g transform="scale(4)"><path d="M6,1.7v2.7C6,5.2,5.2,6,4.3,6H1.7C0.7,6,0,5.3,0,4.3V1.7C0,0.8,0.8,0,1.7,0h2.7C5.3,0,6,0.7,6,1.7z"/></g></g>
<g transform="translate(192,16)" fill="#98db3b"><g transform="scale(4)"><path d="M4.5,14h5.1C12,14,14,12,14,9.6V4.5C14,2,12,0,9.5,0H4.4C2,0,0,2,0,4.4v5.1C0,12,2,14,4.5,14z M12,4.8v4.4 c0,1.5-1.3,2.8-2.8,2.8H4.8C3.2,12,2,10.8,2,9.2V4.8C2,3.3,3.3,2,4.8,2h4.4C10.8,2,12,3.2,12,4.8z"/></g></g>
<g transform="translate(208,32)" fill="#98db3b"><g transform="scale(4)"><path d="M6,1.7v2.7C6,5.2,5.2,6,4.3,6H1.7C0.7,6,0,5.3,0,4.3V1.7C0,0.8,0.8,0,1.7,0h2.7C5.3,0,6,0.7,6,1.7z"/></g></g>
<g transform="translate(16,192)" fill="#98db3b"><g transform="scale(4)"><path d="M4.5,14h5.1C12,14,14,12,14,9.6V4.5C14,2,12,0,9.5,0H4.4C2,0,0,2,0,4.4v5.1C0,12,2,14,4.5,14z M12,4.8v4.4 c0,1.5-1.3,2.8-2.8,2.8H4.8C3.2,12,2,10.8,2,9.2V4.8C2,3.3,3.3,2,4.8,2h4.4C10.8,2,12,3.2,12,4.8z"/></g></g>
<g transform="translate(32,208)" fill="#98db3b"><g transform="scale(4)"><path d="M6,1.7v2.7C6,5.2,5.2,6,4.3,6H1.7C0.7,6,0,5.3,0,4.3V1.7C0,0.8,0.8,0,1.7,0h2.7C5.3,0,6,0.7,6,1.7z"/></g></g></g></svg>
